# This file uses centimeters as units for non-parametric coordinates.

v -1.137042 -0.499921 0.373806
v -1.235000 -0.491699 0.306817
v -1.336014 -0.450221 0.354001
v -1.339071 -0.416965 0.468174
v -1.241114 -0.425188 0.535163
v -1.140100 -0.466666 0.487978
v -1.040594 -0.449357 0.316295
v -1.210260 -0.435115 0.200267
v -1.385222 -0.363273 0.281993
v -1.390517 -0.305673 0.479746
v -1.220851 -0.319915 0.595773
v -1.045889 -0.391757 0.514048
v -0.982790 -0.349921 0.272275
v -1.178704 -0.333475 0.138298
v -1.380732 -0.250519 0.232666
v -1.386847 -0.184009 0.461012
v -1.190933 -0.200454 0.594989
v -0.988904 -0.283410 0.500620
v -1.246293 -0.488065 0.429397
v 0.931314 -0.241513 0.810394
v 1.491789 -0.122971 0.511373
v 0.000000 -0.270686 0.949938
v -1.088548 -0.231587 0.722017
v -1.794225 -0.175761 0.147873
v 1.846649 -0.060955 0.315405
v 2.092883 -0.084963 0.520471
v 2.448130 -0.060464 0.686866
v 0.583517 -0.383112 0.000000
v -0.021580 -0.451764 0.000000
v -1.088548 -0.427778 0.000000
v -1.880769 -0.194613 0.000000
v 2.155539 -0.096464 0.085510
v 1.956867 -0.100349 0.080163
v 1.846649 -0.112593 0.082408
v 1.491789 -0.210720 0.000000
v 0.451983 0.000000 1.482533
v -0.000000 0.000000 1.270370
v -1.088548 0.000000 0.973950
v -1.880769 0.000000 0.227255
v -1.994021 -0.000000 -0.000000
v 2.286050 -0.000000 0.089023
v 2.489210 -0.000000 0.832051
v 2.095489 -0.000000 0.679691
v 1.846649 0.000000 0.413382
v 1.491789 0.000000 0.700000
v 0.931314 -0.241513 -0.582333
v 1.491789 -0.122971 -0.335177
v 0.000000 -0.270686 -0.683285
v -1.088548 -0.231587 -0.518397
v -1.794225 -0.175761 -0.147873
v 1.846649 -0.060955 -0.150589
v 2.078591 -0.084963 -0.353208
v 2.428701 -0.060464 -0.500619
v 0.931314 -0.000000 -0.783808
v 0.000000 0.000000 -0.915100
v -1.088548 0.000000 -0.700657
v -1.880769 0.000000 -0.227255
v 2.465062 -0.000000 -0.643720
v 2.075984 -0.000000 -0.512429
v 1.846649 -0.000000 -0.248566
v 1.491789 0.000000 -0.523805
v 2.603749 -0.000000 0.680151
v 2.584675 -0.000000 -0.485518
v -1.686546 0.000000 -0.461541
v -1.566998 -0.178256 -0.373721
v -1.301599 -0.342102 0.000000
v -1.490052 -0.000000 -0.134657
v -1.395826 -0.237758 -0.067328
v 0.931314 -0.000000 1.088888
v 0.488483 0.000000 1.251035
v -1.137042 0.499921 0.373806
v -1.235000 0.491699 0.306817
v -1.336014 0.450221 0.354001
v -1.339071 0.416965 0.468174
v -1.241114 0.425188 0.535163
v -1.140100 0.466666 0.487978
v -1.040594 0.449357 0.316295
v -1.210260 0.435115 0.200267
v -1.385222 0.363273 0.281993
v -1.390517 0.305673 0.479746
v -1.220851 0.319915 0.595773
v -1.045889 0.391757 0.514048
v -0.982790 0.349921 0.272275
v -1.178704 0.333475 0.138298
v -1.380732 0.250519 0.232666
v -1.386847 0.184009 0.461012
v -1.190933 0.200454 0.594989
v -0.988904 0.283410 0.500620
v -1.246293 0.488065 0.429397
v 0.931314 0.241513 0.810394
v 1.491789 0.122971 0.511373
v -0.000000 0.270686 0.949938
v -1.088548 0.231587 0.722017
v -1.794225 0.175761 0.147873
v 1.846649 0.060955 0.315405
v 2.092883 0.084963 0.520471
v 2.448130 0.060464 0.686866
v 0.583517 0.383112 0.000000
v -0.021580 0.451764 -0.000000
v -1.088548 0.427778 0.000000
v -1.880769 0.194613 -0.000000
v 2.155539 0.096464 0.085510
v 1.956867 0.100349 0.080163
v 1.846649 0.112593 0.082408
v 1.491789 0.210720 -0.000000
v 0.931314 0.241513 -0.582333
v 1.491789 0.122971 -0.335177
v -0.000000 0.270686 -0.683285
v -1.088548 0.231587 -0.518397
v -1.794225 0.175761 -0.147873
v 1.846649 0.060955 -0.150589
v 2.078591 0.084963 -0.353208
v 2.428701 0.060464 -0.500619
v -1.566998 0.178256 -0.373721
v -1.301599 0.342102 0.000000
v -1.395826 0.237758 -0.067328
vt 0.169610 0.410239
vt 0.155119 0.489644
vt 0.188699 0.436554
vt 0.150223 0.440890
vt 0.120492 0.452249
vt 0.130231 0.419300
vt 0.119444 0.361764
vt 0.129626 0.367059
vt 0.153023 0.308674
vt 0.149013 0.336407
vt 0.187651 0.346069
vt 0.169005 0.357997
vt 0.161365 0.518000
vt 0.200140 0.456696
vt 0.121380 0.474820
vt 0.120170 0.370336
vt 0.158945 0.309033
vt 0.198929 0.352213
vt 0.147988 0.384802
vt 0.578972 0.210470
vt 0.689900 0.347292
vt 0.689900 0.260983
vt 0.760133 0.392130
vt 0.760133 0.436961
vt 0.394650 0.146619
vt 0.394650 0.000000
vt 0.179208 0.250909
vt 0.179208 0.135632
vt 0.039543 0.513618
vt 0.834340 0.270649
vt 0.834340 0.343553
vt 0.961857 0.205710
vt 0.949242 0.271711
vt 0.179208 0.581280
vt 0.394650 0.581280
vt 0.022415 0.581280
vt 0.137042 0.581280
vt 0.857081 0.543573
vt 0.899601 0.543573
vt 1.000000 0.276705
vt 0.792354 0.543573
vt 0.760133 0.543573
vt 0.689900 0.581280
vt 0.515262 0.581280
vt 0.022415 0.477296
vt 0.000000 0.581280
vt 0.689900 0.734646
vt 0.578972 0.939925
vt 0.689900 0.820956
vt 0.760133 0.695016
vt 0.760133 0.650185
vt 0.578972 0.847737
vt 0.394650 1.000000
vt 0.394650 0.893929
vt 0.179208 0.901878
vt 0.834340 0.816496
vt 0.834340 0.743593
vt 0.961857 0.881435
vt 0.949242 0.815435
vt 0.179208 0.818482
vt 1.000000 0.810441
vt 0.022415 0.685265
vt 0.039543 0.648942
vt 0.060854 0.792466
vt 0.084515 0.752283
vt 0.118393 0.612087
vt 0.099744 0.642895
vt 0.580612 0.010957
vt 0.581996 0.170415
vt 0.587862 0.143554
vt 0.000000 0.000000
vt 0.999820 0.003691
vt 0.000234 0.010074
vt 1.000000 0.000000
vt 0.997814 3.577132
vt 0.000798 2.177353
vt 0.169610 0.410239
vt 0.155119 0.489644
vt 0.188699 0.436554
vt 0.150223 0.440890
vt 0.120492 0.452249
vt 0.130231 0.419300
vt 0.119444 0.361764
vt 0.129626 0.367059
vt 0.153023 0.308674
vt 0.149013 0.336407
vt 0.187651 0.346069
vt 0.169005 0.357997
vt 0.161365 0.518000
vt 0.200140 0.456696
vt 0.121380 0.474820
vt 0.120170 0.370336
vt 0.158945 0.309033
vt 0.198929 0.352213
vt 0.147988 0.384802
vt 0.578972 0.210470
vt 0.689900 0.347292
vt 0.689900 0.260983
vt 0.760133 0.392130
vt 0.760133 0.436961
vt 0.581996 0.170415
vt 0.394650 0.146619
vt 0.394650 0.000000
vt 0.179208 0.250909
vt 0.179208 0.135632
vt 0.039543 0.513618
vt 0.834340 0.270649
vt 0.834340 0.343553
vt 0.961857 0.205710
vt 0.949242 0.271711
vt 0.179208 0.581280
vt 0.394650 0.581280
vt 0.022415 0.581280
vt 0.137042 0.581280
vt 0.857081 0.543573
vt 0.899601 0.543573
vt 1.000000 0.276705
vt 0.792354 0.543573
vt 0.760133 0.543573
vt 0.689900 0.581280
vt 0.515262 0.581280
vt 0.022415 0.477296
vt 0.689900 0.734646
vt 0.578972 0.939925
vt 0.689900 0.820956
vt 0.760133 0.695016
vt 0.760133 0.650185
vt 0.578972 0.847737
vt 0.394650 1.000000
vt 0.394650 0.893929
vt 0.179208 0.901878
vt 0.834340 0.816496
vt 0.834340 0.743593
vt 0.961857 0.881435
vt 0.949242 0.815435
vt 0.179208 0.818482
vt 1.000000 0.810441
vt 0.000000 0.581280
vt 0.039543 0.648942
vt 0.060854 0.792466
vt 0.084515 0.752283
vt 0.118393 0.612087
vt 0.587862 0.143554
vt 0.580612 0.010957
vt 0.022415 0.685265
vt 0.099744 0.642895
vt 0.000000 0.000000
vt 0.999820 0.003691
vt 0.000798 2.177353
vt 0.000234 0.010074
vt 1.000000 0.000000
vt 0.997814 3.577132
vn 0.261687 -0.962603 -0.070106
vn -0.126670 -0.652072 -0.747500
vn 0.630179 -0.727418 -0.271547
vn -0.249919 -0.901060 -0.354446
vn -0.870943 -0.335007 -0.359484
vn -0.720507 -0.689794 -0.071089
vn -0.858366 -0.093286 0.504485
vn -0.679489 -0.540072 0.496605
vn -0.101517 -0.168632 0.980437
vn -0.167883 -0.601616 0.780944
vn 0.642755 -0.485698 0.592422
vn 0.302704 -0.812881 0.497589
vn -0.066586 -0.504265 -0.860978
vn 0.741407 -0.580232 -0.337115
vn -0.874847 -0.164484 -0.455617
vn -0.875116 0.099329 0.473608
vn -0.067123 0.023362 0.997471
vn 0.741138 -0.316419 0.592109
vn -0.258391 -0.929333 0.263769
vn 0.188737 -0.936391 0.295890
vn 0.266195 -0.942335 0.202840
vn 0.417534 -0.740144 0.527117
vn 0.063757 -0.844672 0.531474
vn 0.082633 -0.965104 0.248489
vn 0.222258 -0.757979 0.613245
vn -0.025428 -0.940928 0.337650
vn -0.212481 -0.743661 0.633893
vn -0.219214 -0.883191 0.414632
vn -0.288982 -0.702538 0.650330
vn -0.418237 -0.810463 0.410155
vn -0.239935 -0.853912 0.461807
vn -0.089283 -0.979782 0.179041
vn 0.005077 -0.917650 0.397356
vn 0.177075 -0.980915 0.080317
vn -0.092264 -0.995666 -0.011688
vn 0.010938 -0.999940 0.001185
vn -0.527675 -0.849432 0.004947
vn -0.299642 -0.941793 0.152449
vn 0.215892 -0.976417 -0.000785
vn 0.571033 -0.761403 -0.306899
vn 0.393307 -0.915894 -0.080297
vn 0.024288 -0.999511 -0.019705
vn 0.189968 -0.981770 -0.006303
vn 0.221612 -0.975107 0.007418
vn 0.132601 -0.990369 -0.039828
vn -0.722136 -0.000000 0.691751
vn 0.330267 -0.864851 -0.378096
vn 0.205368 -0.638500 -0.741716
vn 0.282519 -0.803851 -0.523456
vn -0.012322 -0.854600 -0.519141
vn 0.092311 -0.964153 -0.248773
vn 0.180066 -0.902977 -0.390139
vn -0.032844 -0.649248 -0.759867
vn -0.020097 -0.885347 -0.464496
vn -0.190071 -0.612130 -0.767574
vn -0.225846 -0.864674 -0.448701
vn -0.086924 -0.981370 -0.171338
vn 0.010359 -0.922041 -0.386953
vn 0.163790 -0.983771 -0.073261
vn -0.127929 -0.859672 -0.494569
vn 0.350313 -0.930470 0.107266
vn 0.545808 -0.809833 0.215090
vn -0.999516 -0.000000 0.031115
vn -0.437386 -0.835540 -0.332516
vn -0.297473 -0.582399 -0.756519
vn -0.262748 -0.802184 -0.536157
vn -0.461080 -0.736111 -0.495526
vn -0.562814 -0.628221 -0.537195
vn -0.844991 -0.265320 0.464322
vn 0.186575 -0.258829 -0.947733
vn 0.120423 -0.922526 0.366667
vn -0.895017 -0.000000 -0.446031
vn 0.194561 -0.000000 -0.980890
vn -0.737390 0.000000 -0.675468
vn -0.875614 0.000000 0.483012
vn 0.275583 -0.893030 0.355741
vn 0.261687 0.962603 -0.070106
vn 0.630179 0.727418 -0.271547
vn -0.126671 0.652072 -0.747500
vn -0.249919 0.901060 -0.354446
vn -0.870943 0.335007 -0.359484
vn -0.720507 0.689794 -0.071089
vn -0.858366 0.093287 0.504485
vn -0.679489 0.540072 0.496605
vn -0.101517 0.168632 0.980437
vn -0.167883 0.601616 0.780944
vn 0.642755 0.485698 0.592422
vn 0.302704 0.812881 0.497589
vn 0.741407 0.580232 -0.337115
vn -0.066586 0.504265 -0.860978
vn -0.874847 0.164484 -0.455617
vn -0.875117 -0.099329 0.473608
vn -0.067123 -0.023362 0.997471
vn 0.741138 0.316419 0.592109
vn -0.258391 0.929333 0.263769
vn 0.188737 0.936391 0.295890
vn 0.417534 0.740144 0.527117
vn 0.266195 0.942335 0.202840
vn 0.063757 0.844672 0.531474
vn 0.082633 0.965104 0.248489
vn -0.025428 0.940928 0.337650
vn 0.222259 0.757979 0.613245
vn -0.219214 0.883191 0.414632
vn -0.212481 0.743661 0.633893
vn -0.418237 0.810463 0.410156
vn -0.288982 0.702538 0.650330
vn -0.239935 0.853912 0.461807
vn -0.089283 0.979782 0.179041
vn 0.005077 0.917650 0.397357
vn 0.177075 0.980915 0.080317
vn -0.092264 0.995666 -0.011688
vn 0.010938 0.999940 0.001185
vn -0.527675 0.849432 0.004947
vn -0.299642 0.941793 0.152449
vn 0.215892 0.976417 -0.000785
vn 0.393307 0.915894 -0.080297
vn 0.571033 0.761402 -0.306899
vn 0.024288 0.999511 -0.019705
vn 0.189968 0.981770 -0.006303
vn 0.221612 0.975107 0.007418
vn 0.132601 0.990369 -0.039828
vn 0.330267 0.864851 -0.378096
vn 0.282519 0.803851 -0.523456
vn 0.205368 0.638500 -0.741716
vn -0.012323 0.854600 -0.519141
vn 0.092311 0.964153 -0.248773
vn 0.180066 0.902977 -0.390139
vn -0.032844 0.649248 -0.759867
vn -0.020097 0.885347 -0.464496
vn -0.190071 0.612130 -0.767574
vn -0.225846 0.864674 -0.448701
vn -0.086924 0.981370 -0.171338
vn 0.010359 0.922041 -0.386953
vn 0.163790 0.983771 -0.073261
vn -0.127929 0.859672 -0.494569
vn 0.545808 0.809833 0.215090
vn 0.350314 0.930470 0.107266
vn -0.437386 0.835540 -0.332516
vn -0.297473 0.582399 -0.756519
vn -0.262748 0.802184 -0.536157
vn -0.461080 0.736111 -0.495526
vn -0.844991 0.265320 0.464322
vn -0.562814 0.628221 -0.537195
vn 0.186575 0.258829 -0.947733
vn 0.120423 0.922526 0.366667
vn 0.275583 0.893030 0.355741
s 1
f 1/1/1 8/2/2 7/3/3
f 2/4/4 9/5/5 8/2/2
f 3/6/6 10/7/7 9/5/5
f 4/8/8 11/9/9 10/7/7
f 5/10/10 12/11/11 11/9/9
f 6/12/12 7/3/3 12/11/11
f 7/3/3 14/13/13 13/14/14
f 8/2/2 15/15/15 14/13/13
f 9/5/5 16/16/16 15/15/15
f 10/7/7 17/17/17 16/16/16
f 11/9/9 18/18/18 17/17/17
f 12/11/11 13/14/14 18/18/18
f 2/4/4 1/1/1 19/19/19
f 3/6/6 2/4/4 19/19/19
f 4/8/8 3/6/6 19/19/19
f 5/10/10 4/8/8 19/19/19
f 6/12/12 5/10/10 19/19/19
f 1/1/1 6/12/12 19/19/19
s 6
f 20/20/20 21/21/21 45/22/22
f 44/23/23 21/21/21 25/24/24
f 20/20/20 69/69/25 22/25/26
f 22/25/26 37/26/27 23/27/28
f 23/27/28 38/28/29 24/29/30
f 43/30/31 25/24/24 26/31/32
f 42/32/33 26/31/32 27/33/34
f 30/34/35 29/35/36 22/25/26
f 31/36/37 66/37/38 24/29/30
f 32/38/39 41/39/40 62/40/41
f 27/33/34 33/41/42 32/38/39
f 26/31/32 34/42/43 33/41/42
f 25/24/24 35/43/44 34/42/43
f 28/44/45 35/43/44 21/21/21
f 39/45/46 31/36/37 24/29/30
f 47/47/47 54/48/48 61/49/49
f 60/50/50 51/51/51 61/49/49
f 46/52/52 55/53/53 54/48/48
f 48/54/54 56/55/55 55/53/53
f 59/56/56 52/57/57 60/50/50
f 58/58/58 53/59/59 59/56/56
f 29/35/36 49/60/60 48/54/54
f 53/59/59 63/61/61 41/39/62
f 52/57/57 53/59/59 32/38/39
f 51/51/51 34/42/43 47/47/47
f 35/43/44 46/52/52 47/47/47
f 40/46/63 50/63/64 31/36/37
f 27/33/34 62/40/41 42/32/33
f 63/61/61 53/59/59 58/58/58
f 49/60/60 64/64/65 56/55/55
f 30/34/35 65/65/66 49/60/60
f 31/36/37 50/63/64 66/37/38
s 21
f 66/37/67 68/66/68 65/65/69
f 66/37/67 50/63/70 68/66/68
s 6
f 23/27/28 66/37/38 30/34/35
f 26/31/32 33/41/42 27/33/34
f 51/51/51 33/41/42 34/42/43
f 28/44/45 21/21/21 20/20/20
f 25/24/24 21/21/21 35/43/44
f 28/44/45 46/52/52 35/43/44
f 46/52/52 48/54/54 55/53/53
f 44/23/23 45/22/22 21/21/21
f 43/30/31 44/23/23 25/24/24
f 42/32/33 43/30/31 26/31/32
f 61/49/49 51/51/51 47/47/47
f 25/24/24 34/42/43 26/31/32
f 47/47/47 34/42/43 35/43/44
f 46/52/52 54/48/48 47/47/47
f 20/20/20 45/22/22 69/70/25
f 30/34/35 49/60/60 29/35/36
f 49/60/60 65/65/66 64/64/65
f 48/54/54 49/60/60 56/55/55
f 22/25/26 36/68/71 37/26/27
f 30/34/35 22/25/26 23/27/28
f 66/37/38 65/65/66 30/34/35
f 23/27/28 37/26/27 38/28/29
f 24/29/30 66/37/38 23/27/28
f 24/29/30 38/28/29 39/45/46
f 39/45/46 40/46/63 31/36/37
f 57/62/72 50/63/64 40/46/63
f 32/38/39 62/40/41 27/33/34
f 59/56/56 53/59/59 52/57/57
f 60/50/50 52/57/57 51/51/51
f 51/51/51 52/57/57 33/41/42
f 52/57/57 32/38/39 33/41/42
f 53/59/59 41/39/62 32/38/39
s 1
f 5/10/10 6/12/12 12/11/11
f 12/11/11 7/3/3 13/14/14
f 6/12/12 1/1/1 7/3/3
f 7/3/3 8/2/2 14/13/13
f 1/1/1 2/4/4 8/2/2
f 8/2/2 9/5/5 15/15/15
f 2/4/4 3/6/6 9/5/5
f 9/5/5 10/7/7 16/16/16
f 3/6/6 4/8/8 10/7/7
f 10/7/7 11/9/9 17/17/17
f 4/8/8 5/10/10 11/9/9
f 11/9/9 12/11/11 18/18/18
s 21
f 68/66/68 50/63/70 57/62/73 67/67/74
f 65/65/69 68/66/68 67/67/74 64/64/75
s 6
f 22/71/26 69/72/25 70/76/76
f 36/73/71 22/74/26 70/75/76
f 28/44/45 20/20/20 29/35/36
f 46/52/52 28/44/45 48/54/54
f 29/35/36 20/20/20 22/25/26
f 48/54/54 28/44/45 29/35/36
s 22
f 71/77/77 77/79/78 78/78/79
f 72/80/80 78/78/79 79/81/81
f 73/82/82 79/81/81 80/83/83
f 74/84/84 80/83/83 81/85/85
f 75/86/86 81/85/85 82/87/87
f 76/88/88 82/87/87 77/79/78
f 77/79/78 83/90/89 84/89/90
f 78/78/79 84/89/90 85/91/91
f 79/81/81 85/91/91 86/92/92
f 80/83/83 86/92/92 87/93/93
f 81/85/85 87/93/93 88/94/94
f 82/87/87 88/94/94 83/90/89
f 72/80/80 89/95/95 71/77/77
f 73/82/82 89/95/95 72/80/80
f 74/84/84 89/95/95 73/82/82
f 75/86/86 89/95/95 74/84/84
f 76/88/88 89/95/95 75/86/86
f 71/77/77 89/95/95 76/88/88
s 6
f 90/96/96 45/98/97 91/97/98
f 44/99/99 95/100/100 91/97/98
f 90/96/96 92/102/101 69/101/102
f 92/102/101 93/104/103 37/103/104
f 93/104/103 94/106/105 38/105/106
f 43/107/107 96/108/108 95/100/100
f 42/109/109 97/110/110 96/108/108
f 100/111/111 92/102/101 99/112/112
f 101/113/113 94/106/105 115/114/114
f 102/115/115 62/117/116 41/116/117
f 97/110/110 102/115/115 103/118/118
f 96/108/108 103/118/118 104/119/119
f 95/100/100 104/119/119 105/120/120
f 98/121/121 91/97/98 105/120/120
f 39/122/46 94/106/105 101/113/113
f 107/123/122 61/125/123 54/124/124
f 60/126/125 61/125/123 111/127/126
f 106/128/127 54/124/124 55/129/128
f 108/130/129 55/129/128 56/131/130
f 59/132/131 60/126/125 112/133/132
f 58/134/133 59/132/131 113/135/134
f 99/112/112 108/130/129 109/136/135
f 113/135/134 41/116/136 63/137/137
f 112/133/132 102/115/115 113/135/134
f 111/127/126 107/123/122 104/119/119
f 105/120/120 107/123/122 106/128/127
f 40/138/63 101/113/113 110/139/138
f 97/110/110 42/109/109 62/117/116
f 63/137/137 58/134/133 113/135/134
f 109/136/135 56/131/130 64/140/139
f 100/111/111 109/136/135 114/141/140
f 101/113/113 115/114/114 110/139/138
s 21
f 115/114/141 114/141/142 116/142/143
f 115/114/141 116/142/143 110/139/144
s 6
f 93/104/103 100/111/111 115/114/114
f 96/108/108 97/110/110 103/118/118
f 111/127/126 104/119/119 103/118/118
f 98/121/121 90/96/96 91/97/98
f 95/100/100 105/120/120 91/97/98
f 98/121/121 105/120/120 106/128/127
f 106/128/127 55/129/128 108/130/129
f 44/99/99 91/97/98 45/98/97
f 43/107/107 95/100/100 44/99/99
f 42/109/109 96/108/108 43/107/107
f 61/125/123 107/123/122 111/127/126
f 95/100/100 96/108/108 104/119/119
f 107/123/122 105/120/120 104/119/119
f 106/128/127 107/123/122 54/124/124
f 90/96/96 69/143/102 45/98/97
f 100/111/111 99/112/112 109/136/135
f 109/136/135 64/140/139 114/141/140
f 108/130/129 56/131/130 109/136/135
f 92/102/101 37/103/104 36/144/145
f 100/111/111 93/104/103 92/102/101
f 115/114/114 100/111/111 114/141/140
f 93/104/103 38/105/106 37/103/104
f 94/106/105 93/104/103 115/114/114
f 94/106/105 39/122/46 38/105/106
f 39/122/46 101/113/113 40/138/63
f 57/145/72 40/138/63 110/139/138
f 102/115/115 97/110/110 62/117/116
f 59/132/131 112/133/132 113/135/134
f 60/126/125 111/127/126 112/133/132
f 111/127/126 103/118/118 112/133/132
f 112/133/132 103/118/118 102/115/115
f 113/135/134 102/115/115 41/116/136
s 22
f 75/86/86 82/87/87 76/88/88
f 82/87/87 83/90/89 77/79/78
f 76/88/88 77/79/78 71/77/77
f 77/79/78 84/89/90 78/78/79
f 71/77/77 78/78/79 72/80/80
f 78/78/79 85/91/91 79/81/81
f 72/80/80 79/81/81 73/82/82
f 79/81/81 86/92/92 80/83/83
f 73/82/82 80/83/83 74/84/84
f 80/83/83 87/93/93 81/85/85
f 74/84/84 81/85/85 75/86/86
f 81/85/85 88/94/94 82/87/87
s 21
f 116/142/143 67/146/74 57/145/73 110/139/144
f 114/141/142 64/140/75 67/146/74 116/142/143
s 6
f 92/147/101 70/149/146 69/148/102
f 36/150/145 70/152/146 92/151/101
f 98/121/121 99/112/112 90/96/96
f 106/128/127 108/130/129 98/121/121
f 99/112/112 92/102/101 90/96/96
f 108/130/129 99/112/112 98/121/121
