# Rhino

v -7 7 0
v -7 -4 0
v 7 7 0
v 7 -4 0
v 7 7 0
v 7 -4 0
v 7 7 10
v 7 -4 10
v 7 7 10
v 7 -4 10
v -7 7 10
v -7 -4 10
v -7 7 10
v -7 -4 10
v -7 7 0
v -7 -4 0
v -7 7 0
v 7 7 0
v -7 7 10
v 7 7 10
v -7 -4 0
v -7 -4 10
v 7 -4 0
v 7 -4 10
vt 0 0.5
vt 0 0.8223784565925598
vt 0.4102998673915863 0.5
vt 0.4102998673915863 0.8223784565925598
vt 0.7058823704719544 0
vt 0.7058823704719544 0.3219180703163147
vt 0.99853515625 0
vt 0.99853515625 0.3219180703163147
vt 0 0
vt 0 0.3223784565925598
vt 0.4102998673915863 0
vt 0.4102998673915863 0.3223784565925598
vt 0.4117647111415863 0
vt 0.4117647111415863 0.3219180703163147
vt 0.7044175267219544 0
vt 0.7044175267219544 0.3219180703163147
vt 0.7058823704719544 0.4399999976158142
vt 0.7058823704719544 0.849713921546936
vt 0.99853515625 0.4399999976158142
vt 0.99853515625 0.849713921546936
vt 0.7044175267219544 0.4399999976158142
vt 0.4117647111415863 0.4399999976158142
vt 0.7044175267219544 0.849713921546936
vt 0.4117647111415863 0.849713921546936
vn 0 0 -1
vn 0 0 -1
vn 0 0 -1
vn 0 0 -1
vn 1 0 -0
vn 1 0 -0
vn 1 0 -0
vn 1 0 -0
vn 0 0 1
vn 0 0 1
vn 0 0 1
vn 0 0 1
vn -1 -0 -0
vn -1 -0 -0
vn -1 -0 -0
vn -1 -0 -0
vn 0 1 0
vn 0 1 0
vn 0 1 0
vn 0 1 0
vn 0 -1 0
vn 0 -1 0
vn 0 -1 0
vn 0 -1 0
f 1/1/1 3/3/3 4/4/4
f 4/4/4 2/2/2 1/1/1
f 5/5/5 7/7/7 8/8/8
f 8/8/8 6/6/6 5/5/5
f 9/9/9 11/11/11 12/12/12
f 12/12/12 10/10/10 9/9/9
f 13/13/13 15/15/15 16/16/16
f 16/16/16 14/14/14 13/13/13
f 18/18/18 17/17/17 19/19/19
f 20/20/20 18/18/18 19/19/19
f 21/21/21 23/23/23 24/24/24
f 24/24/24 22/22/22 21/21/21
