# Blender 4.1.0
# www.blender.org
o SM_Fish02
v -0.009216 0.002836 -0.005060 0.0000 0.0000 0.0000
v -0.010031 0.001222 -0.005256 0.0000 0.0000 0.0000
v -0.011810 0.001055 -0.004917 0.0000 0.0000 0.0000
v -0.012774 0.002502 -0.004383 0.0000 0.0000 0.0000
v -0.011959 0.004116 -0.004187 0.0000 0.0000 0.0000
v -0.010180 0.004284 -0.004526 0.0000 0.0000 0.0000
v -0.007774 0.002809 -0.004654 1.0000 1.0000 1.0000
v -0.009187 0.000013 -0.004992 1.0000 1.0000 1.0000
v -0.012269 -0.000276 -0.004406 1.0000 1.0000 1.0000
v -0.013938 0.002230 -0.003480 1.0000 1.0000 1.0000
v -0.012526 0.005026 -0.003141 1.0000 1.0000 1.0000
v -0.009444 0.005316 -0.003728 1.0000 1.0000 1.0000
v -0.007109 0.002501 -0.003226 1.0000 1.0000 1.0000
v -0.008681 -0.000611 -0.003603 1.0000 1.0000 1.0000
v -0.012112 -0.000933 -0.002950 1.0000 1.0000 1.0000
v -0.013970 0.001857 -0.001920 1.0000 1.0000 1.0000
v -0.012398 0.004969 -0.001543 1.0000 1.0000 1.0000
v -0.008968 0.005291 -0.002196 1.0000 1.0000 1.0000
v -0.011046 0.002724 -0.004961 0.0000 0.0000 0.0000
v -0.009216 0.002836 0.005060 0.0000 0.0000 0.0000
v -0.010031 0.001222 0.005256 0.0000 0.0000 0.0000
v -0.011810 0.001055 0.004917 0.0000 0.0000 0.0000
v -0.012774 0.002502 0.004383 0.0000 0.0000 0.0000
v -0.011959 0.004116 0.004187 0.0000 0.0000 0.0000
v -0.010180 0.004284 0.004526 0.0000 0.0000 0.0000
v -0.007774 0.002809 0.004654 1.0000 1.0000 1.0000
v -0.009187 0.000013 0.004992 1.0000 1.0000 1.0000
v -0.012269 -0.000276 0.004406 1.0000 1.0000 1.0000
v -0.013938 0.002230 0.003480 1.0000 1.0000 1.0000
v -0.012526 0.005026 0.003141 1.0000 1.0000 1.0000
v -0.009444 0.005316 0.003728 1.0000 1.0000 1.0000
v -0.007109 0.002501 0.003226 1.0000 1.0000 1.0000
v -0.008681 -0.000611 0.003603 1.0000 1.0000 1.0000
v -0.012112 -0.000933 0.002950 1.0000 1.0000 1.0000
v -0.013970 0.001857 0.001920 1.0000 1.0000 1.0000
v -0.012398 0.004969 0.001543 1.0000 1.0000 1.0000
v -0.008968 0.005291 0.002196 1.0000 1.0000 1.0000
v -0.011046 0.002724 0.004961 0.0000 0.0000 0.0000
v 0.009289 0.008489 0.002623 0.7137 0.2314 0.2314
v 0.014894 0.004545 0.001230 0.6745 0.2078 0.2078
v -0.000024 0.010330 0.002707 0.8470 0.2471 0.2471
v -0.010910 0.007323 0.002316 0.5490 0.1255 0.1255
v -0.017967 -0.000250 0.001758 0.5176 0.0980 0.0980
v 0.018442 0.001960 0.000610 0.5294 0.0980 0.0980
v 0.020609 0.004652 0.000850 0.5059 0.0824 0.0824
v 0.023834 0.006724 0.000605 0.5216 0.0941 0.0941
v 0.005811 -0.002201 0.005298 0.6863 0.2157 0.2157
v -0.000240 -0.002201 0.006247 0.7176 0.2510 0.2510
v -0.009627 -0.002201 0.004278 0.6706 0.3216 0.3216
v -0.018832 -0.002201 0.001946 0.5137 0.0980 0.0980
v 0.021247 -0.001114 0.001196 0.5608 0.1216 0.1216
v 0.019430 -0.001114 0.001340 0.5216 0.0941 0.0941
v 0.018442 -0.001114 0.001504 0.5098 0.0902 0.0902
v 0.014894 -0.002201 0.002107 0.5294 0.0980 0.0980
v 0.005509 0.020124 -0.000000 0.5843 0.1176 0.1176
v -0.002253 0.015435 -0.000000 0.5608 0.1059 0.1059
v -0.010910 0.010647 -0.000000 0.5059 0.0824 0.0824
v -0.018832 0.000797 -0.000000 0.5059 0.0824 0.0824
v -0.019964 -0.002201 0.000000 0.5059 0.0824 0.0824
v 0.022441 -0.001114 0.000000 0.6118 0.1608 0.1608
v 0.024188 0.008626 -0.000000 0.5059 0.0784 0.0784
v 0.020609 0.006754 -0.000000 0.5059 0.0784 0.0784
v 0.018442 0.003252 -0.000000 0.5294 0.0980 0.0980
v 0.016447 0.008181 -0.000000 0.5569 0.1176 0.1176
v 0.009289 -0.010896 0.002623 0.4941 0.0980 0.0980
v 0.015772 -0.007230 0.001230 0.4823 0.0902 0.0902
v -0.000024 -0.012430 0.002940 0.5373 0.1373 0.1373
v -0.010910 -0.009039 0.002316 0.6510 0.3255 0.3255
v -0.017967 -0.004152 0.001758 0.5294 0.1176 0.1176
v 0.018442 -0.004187 0.000610 0.4941 0.0863 0.0863
v 0.020609 -0.006880 0.000850 0.5176 0.0902 0.0902
v 0.023834 -0.008951 0.000605 0.5412 0.1059 0.1059
v 0.009289 -0.013553 0.000000 0.3529 0.1412 0.1412
v -0.000024 -0.015488 0.000000 0.3765 0.1569 0.1569
v -0.010910 -0.011444 0.000000 0.6197 0.3059 0.3059
v -0.018832 -0.005199 0.000000 0.5176 0.1059 0.1059
v 0.024188 -0.010854 0.000000 0.5255 0.0941 0.0941
v 0.020609 -0.008982 0.000000 0.5059 0.0824 0.0824
v 0.018442 -0.005480 0.000000 0.4941 0.0824 0.0824
v 0.015772 -0.009718 0.000000 0.3647 0.1373 0.1373
v 0.025259 0.006580 -0.000000 0.5412 0.1059 0.1059
v 0.025259 -0.008808 0.000000 0.6706 0.2039 0.2039
v -0.015269 -0.008762 0.000000 0.6550 0.3490 0.3490
v -0.014073 -0.007604 0.001783 0.6550 0.3451 0.3451
v -0.011757 -0.002201 0.003421 0.6276 0.2941 0.2941
v -0.014249 -0.004315 0.000000 0.6432 0.3255 0.3255
v -0.013307 -0.003427 0.002378 0.6432 0.3255 0.3255
v 0.010977 0.011825 -0.000000 0.5882 0.1255 0.1255
v 0.006211 0.014977 -0.000000 0.5843 0.1176 0.1176
v 0.009289 0.008489 -0.002623 0.7137 0.2314 0.2314
v 0.014894 0.004545 -0.001230 0.6745 0.2078 0.2078
v -0.000024 0.010330 -0.002707 0.8470 0.2471 0.2471
v -0.010910 0.007323 -0.002316 0.5490 0.1255 0.1255
v -0.017967 -0.000250 -0.001758 0.5176 0.0980 0.0980
v 0.018442 0.001960 -0.000610 0.5294 0.0980 0.0980
v 0.020609 0.004652 -0.000850 0.5059 0.0824 0.0824
v 0.023834 0.006724 -0.000605 0.5216 0.0941 0.0941
v 0.005811 -0.002201 -0.005298 0.6863 0.2157 0.2157
v -0.000240 -0.002201 -0.006247 0.7176 0.2510 0.2510
v -0.009627 -0.002201 -0.004278 0.6706 0.3216 0.3216
v -0.018832 -0.002201 -0.001946 0.5137 0.0980 0.0980
v 0.021247 -0.001114 -0.001196 0.5608 0.1216 0.1216
v 0.019430 -0.001114 -0.001340 0.5216 0.0941 0.0941
v 0.018442 -0.001114 -0.001504 0.5098 0.0902 0.0902
v 0.014894 -0.002201 -0.002107 0.5294 0.0980 0.0980
v 0.009289 -0.010896 -0.002623 0.4941 0.0980 0.0980
v 0.015772 -0.007230 -0.001230 0.4823 0.0902 0.0902
v -0.000024 -0.012430 -0.002940 0.5373 0.1373 0.1373
v -0.010910 -0.009039 -0.002316 0.6510 0.3255 0.3255
v -0.017967 -0.004152 -0.001758 0.5255 0.1176 0.1176
v 0.018442 -0.004187 -0.000610 0.4941 0.0863 0.0863
v 0.020609 -0.006880 -0.000850 0.5176 0.0902 0.0902
v 0.023834 -0.008951 -0.000605 0.5412 0.1059 0.1059
v -0.014073 -0.007604 -0.001783 0.6550 0.3451 0.3451
v -0.011757 -0.002201 -0.003421 0.6276 0.2941 0.2941
v -0.013307 -0.003427 -0.002378 0.6432 0.3255 0.3255
vn 0.7531 0.1587 -0.6385
vn 0.3376 -0.6016 -0.7240
vn 0.1604 0.1985 -0.9669
vn -0.5150 -0.6532 -0.5551
vn -0.0325 -0.1010 -0.9944
vn -0.9521 0.0556 -0.3008
vn -0.3818 -0.0961 -0.9192
vn -0.5366 0.8159 -0.2154
vn -0.5382 0.2084 -0.8167
vn 0.3160 0.8675 -0.3842
vn -0.3453 0.5079 -0.7892
vn 0.0040 0.5029 -0.8643
vn 0.9097 0.1180 -0.3983
vn 0.4548 -0.7388 -0.4974
vn -0.4998 -0.8084 -0.3110
vn -0.9994 -0.0213 -0.0256
vn -0.5446 0.8355 0.0735
vn 0.4100 0.9051 -0.1128
vn -0.2023 0.2178 -0.9548
vn 0.3376 -0.6016 0.7240
vn 0.7531 0.1587 0.6385
vn 0.1604 0.1985 0.9669
vn -0.5150 -0.6532 0.5551
vn -0.0325 -0.1010 0.9944
vn -0.9521 0.0556 0.3008
vn -0.3818 -0.0961 0.9192
vn -0.5366 0.8159 0.2154
vn -0.5382 0.2084 0.8167
vn 0.3160 0.8675 0.3842
vn -0.3453 0.5079 0.7892
vn 0.0040 0.5029 0.8643
vn 0.4548 -0.7388 0.4974
vn 0.9097 0.1180 0.3982
vn -0.4998 -0.8084 0.3110
vn -0.9994 -0.0213 0.0256
vn -0.5446 0.8355 -0.0735
vn 0.4100 0.9051 0.1128
vn -0.2023 0.2178 0.9548
vn 0.3279 0.1369 0.9347
vn 0.3479 0.2571 0.9016
vn 0.1888 0.3062 0.9331
vn 0.0458 0.2201 0.9744
vn 0.1424 0.3079 0.9407
vn 0.2183 0.4634 0.8588
vn -0.0492 0.3048 0.9512
vn -0.1971 0.4038 0.8934
vn -0.2321 0.3005 0.9251
vn -0.3822 0.5308 0.7564
vn -0.3811 0.2769 0.8821
vn -0.1322 0.1796 0.9748
vn -0.2482 0.3645 0.8975
vn 0.1844 0.0956 0.9782
vn -0.0190 0.3210 0.9469
vn -0.0620 0.0201 0.9979
vn -0.1992 0.0552 0.9784
vn -0.2787 0.0842 0.9567
vn -0.4595 0.0045 0.8882
vn 0.6850 -0.2510 0.6839
vn 0.4314 -0.0401 0.9013
vn 0.3383 -0.0143 0.9409
vn 0.0632 -0.0222 0.9978
vn 0.1437 0.0427 0.9887
vn 0.3012 -0.0158 0.9534
vn 0.2132 -0.0493 0.9758
vn -0.8033 0.5956 -0.0000
vn 0.2505 -0.6677 0.7010
vn 0.2987 -0.4226 0.8557
vn 0.3447 -0.2461 0.9059
vn 0.1418 -0.2453 0.9590
vn 0.0546 -0.4184 0.9066
vn -0.0692 -0.6924 0.7182
vn 0.2344 -0.3676 0.8999
vn -0.2793 -0.6660 0.6917
vn -0.0551 -0.4457 0.8935
vn -0.1127 -0.1560 0.9813
vn -0.2440 -0.3555 0.9023
vn 0.1679 -0.0732 0.9831
vn -0.0209 -0.3063 0.9517
vn -0.2204 -0.3927 0.8929
vn 0.3824 0.0819 0.9204
vn -0.4173 -0.2443 0.8753
vn -0.9997 0.0245 -0.0000
vn -0.3941 -0.6334 0.6660
vn -0.3178 -0.3474 0.8822
vn -0.4177 -0.4802 0.7713
vn 0.0453 0.2423 0.9692
vn -0.9355 -0.3534 -0.0000
vn -0.6721 -0.7404 -0.0000
vn 0.2782 0.1767 0.9441
vn 0.3279 0.1369 -0.9347
vn 0.1888 0.3062 -0.9331
vn 0.0458 0.2201 -0.9744
vn -0.0492 0.3047 -0.9512
vn -0.2321 0.3005 -0.9251
vn -0.3811 0.2769 -0.8821
vn -0.1322 0.1796 -0.9748
vn 0.1844 0.0957 -0.9782
vn -0.0620 0.0201 -0.9979
vn -0.1993 0.0552 -0.9784
vn -0.2787 0.0842 -0.9567
vn -0.4595 0.0045 -0.8882
vn 0.3383 -0.0143 -0.9409
vn 0.0632 -0.0222 -0.9978
vn 0.1437 0.0427 -0.9887
vn 0.3012 -0.0158 -0.9534
vn 0.2132 -0.0493 -0.9758
vn 0.3447 -0.2461 -0.9059
vn 0.1418 -0.2453 -0.9590
vn 0.2344 -0.3676 -0.8999
vn -0.0551 -0.4457 -0.8935
vn -0.1127 -0.1560 -0.9813
vn 0.1679 -0.0732 -0.9831
vn -0.2204 -0.3927 -0.8929
vn -0.4173 -0.2443 -0.8753
vn -0.3177 -0.3473 -0.8823
vn -0.4177 -0.4802 -0.7713
s 1
f 7//1 8//2 1//3
f 8//2 9//4 2//5
f 9//4 10//6 3//7
f 10//6 11//8 4//9
f 11//8 12//10 5//11
f 12//10 7//1 6//12
f 13//13 14//14 7//1
f 14//14 15//15 8//2
f 15//15 16//16 9//4
f 16//16 17//17 10//6
f 17//17 18//18 11//8
f 18//18 13//13 12//10
f 19//19 1//3 2//5
f 19//19 2//5 3//7
f 19//19 3//7 4//9
f 19//19 4//9 5//11
f 19//19 5//11 6//12
f 19//19 6//12 1//3
f 12//10 6//12 5//11
f 13//13 7//1 12//10
f 7//1 1//3 6//12
f 14//14 8//2 7//1
f 8//2 2//5 1//3
f 15//15 9//4 8//2
f 9//4 3//7 2//5
f 16//16 10//6 9//4
f 10//6 4//9 3//7
f 17//17 11//8 10//6
f 11//8 5//11 4//9
f 18//18 12//10 11//8
f 27//20 26//21 20//22
f 28//23 27//20 21//24
f 29//25 28//23 22//26
f 30//27 29//25 23//28
f 31//29 30//27 24//30
f 26//21 31//29 25//31
f 33//32 32//33 26//21
f 34//34 33//32 27//20
f 35//35 34//34 28//23
f 36//36 35//35 29//25
f 37//37 36//36 30//27
f 32//33 37//37 31//29
f 20//22 38//38 21//24
f 21//24 38//38 22//26
f 22//26 38//38 23//28
f 23//28 38//38 24//30
f 24//30 38//38 25//31
f 25//31 38//38 20//22
f 40//39 64//40 39//41
f 40//39 44//42 63//43
f 88//44 41//45 39//41
f 56//46 42//47 41//45
f 57//48 43//49 42//47
f 44//42 45//50 62//51
f 45//50 46//52 61//53
f 48//54 41//45 49//55
f 85//56 43//49 50//57
f 60//58 81//59 51//60
f 52//61 51//60 46//52
f 53//62 52//61 45//50
f 54//63 53//62 44//42
f 54//63 40//39 47//64
f 50//57 43//49 58//65
f 73//66 80//67 66//68
f 70//69 80//67 79//70
f 74//71 73//66 65//72
f 75//73 74//71 67//74
f 71//75 79//70 78//76
f 72//77 78//76 77//78
f 68//79 67//74 48//54
f 82//80 60//58 72//77
f 72//77 51//60 71//75
f 53//62 66//68 70//69
f 65//72 66//68 54//63
f 69//81 50//57 59//82
f 81//59 61//53 46//52
f 72//77 77//78 82//80
f 83//83 75//73 68//79
f 84//84 68//79 49//55
f 69//81 85//56 50//57
f 87//85 84//84 85//56
f 69//81 87//85 85//56
f 85//56 49//55 42//47
f 52//61 46//52 45//50
f 52//61 53//62 70//69
f 40//39 39//41 47//64
f 40//39 54//63 44//42
f 65//72 54//63 47//64
f 67//74 74//71 65//72
f 64//40 40//39 63//43
f 63//43 44//42 62//51
f 62//51 45//50 61//53
f 70//69 66//68 80//67
f 53//62 45//50 44//42
f 53//62 54//63 66//68
f 73//66 66//68 65//72
f 64//40 88//44 39//41
f 68//79 48//54 49//55
f 84//84 83//83 68//79
f 68//79 75//73 67//74
f 55//86 56//46 41//45
f 41//45 42//47 49//55
f 84//84 49//55 85//56
f 56//46 57//48 42//47
f 85//56 42//47 43//49
f 57//48 58//65 43//49
f 59//82 50//57 58//65
f 69//81 59//82 76//87
f 81//59 46//52 51//60
f 72//77 71//75 78//76
f 71//75 70//69 79//70
f 71//75 52//61 70//69
f 51//60 52//61 71//75
f 60//58 51//60 72//77
f 25//31 31//29 24//30
f 26//21 32//33 31//29
f 20//22 26//21 25//31
f 27//20 33//32 26//21
f 21//24 27//20 20//22
f 28//23 34//34 27//20
f 22//26 28//23 21//24
f 29//25 35//35 28//23
f 23//28 29//25 22//26
f 30//27 36//36 29//25
f 24//30 30//27 23//28
f 31//29 37//37 30//27
f 69//81 86//88 87//85
f 69//81 76//87 86//88
f 86//88 84//84 87//85
f 86//88 83//83 84//84
f 88//44 89//89 41//45
f 41//45 89//89 55//86
f 39//41 48//54 47//64
f 47//64 67//74 65//72
f 39//41 41//45 48//54
f 47//64 48//54 67//74
f 64//40 91//90 90//91
f 95//92 91//90 63//43
f 92//93 88//44 90//91
f 93//94 56//46 92//93
f 94//95 57//48 93//94
f 96//96 95//92 62//51
f 97//97 96//96 61//53
f 92//93 99//98 100//99
f 94//95 115//100 101//101
f 81//59 60//58 102//102
f 102//102 103//103 97//97
f 103//103 104//104 96//96
f 104//104 105//105 95//92
f 91//90 105//105 98//106
f 94//95 101//101 58//65
f 80//67 73//66 107//107
f 80//67 111//108 79//70
f 73//66 74//71 106//109
f 74//71 75//73 108//110
f 79//70 112//111 78//76
f 78//76 113//112 77//78
f 108//110 109//113 99//98
f 60//58 82//80 113//112
f 102//102 113//112 112//111
f 107//107 104//104 111//108
f 107//107 106//109 105//105
f 101//101 110//114 59//82
f 61//53 81//59 97//97
f 77//78 113//112 82//80
f 75//73 83//83 109//113
f 109//113 114//115 100//99
f 115//100 110//114 101//101
f 114//115 116//116 115//100
f 116//116 110//114 115//100
f 100//99 115//100 93//94
f 97//97 103//103 96//96
f 104//104 103//103 111//108
f 90//91 91//90 98//106
f 105//105 91//90 95//92
f 105//105 106//109 98//106
f 74//71 108//110 106//109
f 91//90 64//40 63//43
f 95//92 63//43 62//51
f 96//96 62//51 61//53
f 107//107 111//108 80//67
f 96//96 104//104 95//92
f 105//105 104//104 107//107
f 107//107 73//66 106//109
f 88//44 64//40 90//91
f 99//98 109//113 100//99
f 83//83 114//115 109//113
f 75//73 109//113 108//110
f 56//46 55//86 92//93
f 93//94 92//93 100//99
f 100//99 114//115 115//100
f 57//48 56//46 93//94
f 93//94 115//100 94//95
f 58//65 57//48 94//95
f 101//101 59//82 58//65
f 59//82 110//114 76//87
f 97//97 81//59 102//102
f 112//111 113//112 78//76
f 111//108 112//111 79//70
f 103//103 112//111 111//108
f 103//103 102//102 112//111
f 102//102 60//58 113//112
f 86//88 110//114 116//116
f 86//88 76//87 110//114
f 86//88 114//115 83//83
f 86//88 116//116 114//115
f 89//89 88//44 92//93
f 89//89 92//93 55//86
f 99//98 90//91 98//106
f 108//110 98//106 106//109
f 92//93 90//91 99//98
f 99//98 98//106 108//110
