# Blender 4.1.0
# www.blender.org
o SM_Fish01
v -0.010855 0.001881 0.004999 0.0000 0.0000 0.0000
v -0.011835 0.001211 0.004917 0.0000 0.0000 0.0000
v -0.012845 0.001683 0.004502 0.0000 0.0000 0.0000
v -0.012875 0.002825 0.004170 0.0000 0.0000 0.0000
v -0.011896 0.003495 0.004252 0.0000 0.0000 0.0000
v -0.010886 0.003023 0.004667 0.0000 0.0000 0.0000
v -0.009890 0.001306 0.004494 0.9137 0.9137 0.9137
v -0.011587 0.000146 0.004351 0.9137 0.9137 0.9137
v -0.013337 0.000963 0.003633 0.9137 0.9137 0.9137
v -0.013390 0.002941 0.003057 0.9137 0.9137 0.9137
v -0.011693 0.004101 0.003199 0.9137 0.9137 0.9137
v -0.009943 0.003284 0.003918 0.9137 0.9137 0.9137
v -0.009312 0.000866 0.003499 0.9960 0.9960 0.9960
v -0.011272 -0.000474 0.003335 0.9960 0.9960 0.9960
v -0.013292 0.000470 0.002505 0.9960 0.9960 0.9960
v -0.013353 0.002753 0.001840 0.9960 0.9960 0.9960
v -0.011394 0.004093 0.002005 0.9960 0.9960 0.9960
v -0.009374 0.003150 0.002834 0.9960 0.9960 0.9960
v -0.011947 0.002437 0.004881 0.0000 0.0000 0.0000
v 0.009829 0.006247 0.002415 0.1294 0.1686 0.2196
v 0.015433 0.003257 0.001230 0.1137 0.1490 0.1922
v 0.000515 0.007643 0.002707 0.1176 0.1530 0.2000
v -0.010370 0.005363 0.002316 0.1255 0.1647 0.2157
v -0.017427 -0.000378 0.001758 0.1020 0.1255 0.1608
v 0.018982 0.001297 0.000610 0.1098 0.1412 0.1843
v 0.021444 0.003348 0.000850 0.1294 0.1686 0.2275
v 0.024997 0.005012 0.000605 0.1922 0.3098 0.4667
v 0.006351 -0.001857 0.003831 0.2432 0.3412 0.4706
v 0.000300 -0.001857 0.004518 0.2392 0.3294 0.4510
v -0.010370 -0.001857 0.004278 0.1216 0.1569 0.2039
v -0.018292 -0.001857 0.001946 0.1020 0.1294 0.1647
v 0.022071 -0.001002 0.000965 0.1647 0.2314 0.3176
v 0.020084 -0.001055 0.001003 0.1333 0.1804 0.2432
v 0.018982 -0.001033 0.001126 0.1294 0.1686 0.2235
v 0.015433 -0.001857 0.002107 0.1725 0.2353 0.3176
v 0.005035 0.012969 -0.000000 0.1020 0.1294 0.1647
v 0.000515 0.010847 -0.000000 0.1059 0.1333 0.1686
v -0.010370 0.007883 -0.000000 0.1020 0.1255 0.1608
v -0.018292 0.000416 -0.000000 0.1020 0.1255 0.1647
v -0.019425 -0.001857 0.000000 0.1137 0.1451 0.1922
v 0.023376 -0.000966 0.000000 0.1647 0.2275 0.3137
v 0.025408 0.006464 -0.000000 0.1451 0.1961 0.2706
v 0.021470 0.004940 -0.000000 0.1451 0.1961 0.2588
v 0.018982 0.002277 -0.000000 0.1059 0.1333 0.1725
v 0.015433 0.005143 -0.000000 0.1137 0.1451 0.1882
v 0.009829 -0.007680 0.002415 0.2118 0.3333 0.5019
v 0.015433 -0.005208 0.001230 0.1608 0.2157 0.2902
v 0.000515 -0.008690 0.002707 0.2118 0.3333 0.5019
v -0.010370 -0.007041 0.002316 0.1255 0.1647 0.2196
v -0.017427 -0.003335 0.001758 0.1137 0.1451 0.1922
v 0.018982 -0.003363 0.000610 0.1569 0.2118 0.2863
v 0.021301 -0.005389 0.000850 0.1922 0.3137 0.4745
v 0.024802 -0.006863 0.000605 0.1961 0.3216 0.4863
v 0.009829 -0.009695 0.000000 0.1765 0.2432 0.3333
v 0.000515 -0.011008 0.000000 0.1647 0.2314 0.3216
v -0.010370 -0.008863 0.000000 0.1255 0.1686 0.2275
v -0.018292 -0.004129 0.000000 0.1451 0.1922 0.2549
v 0.025166 -0.008294 0.000000 0.2000 0.3294 0.5019
v 0.021275 -0.006981 0.000000 0.2000 0.3294 0.5019
v 0.018982 -0.004342 0.000000 0.1647 0.2235 0.3098
v 0.015433 -0.007095 0.000000 0.1569 0.2118 0.2823
v 0.026553 0.004945 -0.000000 0.2118 0.3372 0.5098
v 0.026362 -0.006712 0.000000 0.1804 0.2510 0.3529
v -0.016350 -0.006472 0.000000 0.1373 0.1765 0.2353
v -0.015155 -0.005594 0.001783 0.1137 0.1490 0.1922
v -0.012501 -0.001857 0.003421 0.1059 0.1373 0.1765
v -0.014385 -0.003203 0.000000 0.2314 0.3176 0.4353
v -0.013443 -0.002530 0.002378 0.1137 0.1490 0.1922
v 0.009829 0.009032 -0.000000 0.1137 0.1451 0.1922
v 0.005400 0.010654 -0.000000 0.1020 0.1255 0.1608
v -0.010855 0.001881 -0.004999 0.0000 0.0000 0.0000
v -0.011835 0.001211 -0.004917 0.0000 0.0000 0.0000
v -0.012845 0.001683 -0.004502 0.0000 0.0000 0.0000
v -0.012875 0.002825 -0.004170 0.0000 0.0000 0.0000
v -0.011896 0.003495 -0.004252 0.0000 0.0000 0.0000
v -0.010886 0.003023 -0.004667 0.0000 0.0000 0.0000
v -0.009890 0.001306 -0.004494 0.9137 0.9137 0.9137
v -0.011587 0.000146 -0.004351 0.9137 0.9137 0.9137
v -0.013337 0.000963 -0.003633 0.9137 0.9137 0.9137
v -0.013390 0.002941 -0.003057 0.9137 0.9137 0.9137
v -0.011693 0.004101 -0.003199 0.9137 0.9137 0.9137
v -0.009943 0.003284 -0.003918 0.9137 0.9137 0.9137
v -0.009312 0.000866 -0.003499 0.9960 0.9960 0.9960
v -0.011272 -0.000474 -0.003335 0.9960 0.9960 0.9960
v -0.013292 0.000470 -0.002505 0.9960 0.9960 0.9960
v -0.013353 0.002753 -0.001840 0.9960 0.9960 0.9960
v -0.011394 0.004093 -0.002005 0.9960 0.9960 0.9960
v -0.009374 0.003150 -0.002834 0.9960 0.9960 0.9960
v -0.011947 0.002437 -0.004881 0.0000 0.0000 0.0000
v 0.009829 0.006247 -0.002415 0.1294 0.1686 0.2196
v 0.015433 0.003257 -0.001230 0.1137 0.1490 0.1922
v 0.000515 0.007643 -0.002707 0.1176 0.1530 0.2000
v -0.010370 0.005363 -0.002316 0.1255 0.1647 0.2157
v -0.017427 -0.000378 -0.001758 0.1020 0.1255 0.1608
v 0.018982 0.001297 -0.000610 0.1098 0.1412 0.1843
v 0.021444 0.003348 -0.000850 0.1294 0.1725 0.2275
v 0.024997 0.005012 -0.000605 0.1922 0.3098 0.4706
v 0.006351 -0.001857 -0.003831 0.2432 0.3412 0.4706
v 0.000300 -0.001857 -0.004518 0.2392 0.3294 0.4510
v -0.010370 -0.001857 -0.004278 0.1216 0.1569 0.2039
v -0.018292 -0.001857 -0.001946 0.1020 0.1294 0.1686
v 0.022071 -0.001002 -0.000965 0.1647 0.2314 0.3176
v 0.020084 -0.001055 -0.001003 0.1333 0.1804 0.2432
v 0.018982 -0.001033 -0.001126 0.1294 0.1686 0.2235
v 0.015433 -0.001857 -0.002107 0.1725 0.2353 0.3176
v 0.009829 -0.007680 -0.002415 0.2118 0.3333 0.5019
v 0.015433 -0.005208 -0.001230 0.1608 0.2157 0.2902
v 0.000515 -0.008690 -0.002707 0.2118 0.3333 0.5019
v -0.010370 -0.007041 -0.002316 0.1255 0.1647 0.2196
v -0.017427 -0.003335 -0.001758 0.1294 0.1686 0.2196
v 0.018982 -0.003363 -0.000610 0.1569 0.2118 0.2863
v 0.021301 -0.005389 -0.000850 0.1922 0.3137 0.4745
v 0.024802 -0.006863 -0.000605 0.1961 0.3216 0.4863
v -0.015155 -0.005594 -0.001783 0.1137 0.1490 0.1922
v -0.012501 -0.001857 -0.003421 0.1059 0.1373 0.1765
v -0.013443 -0.002530 -0.002378 0.1176 0.1490 0.1961
vn -0.1267 -0.7475 0.6521
vn 0.6302 -0.2715 0.7274
vn 0.2617 -0.0701 0.9626
vn -0.8709 -0.3595 0.3350
vn -0.2499 -0.3544 0.9011
vn -0.8584 0.5045 0.0933
vn -0.7205 -0.0711 0.6898
vn -0.1015 0.9804 0.1686
vn -0.6795 0.4966 0.5401
vn 0.6427 0.5924 0.4857
vn -0.1679 0.7809 0.6016
vn 0.3027 0.4976 0.8129
vn -0.0666 -0.8610 0.5043
vn 0.7414 -0.3371 0.5802
vn -0.8749 -0.4556 0.1645
vn -0.8751 0.4736 -0.0993
vn -0.0671 0.9975 -0.0234
vn 0.7411 0.5921 0.3164
vn -0.2584 0.2638 0.9293
vn 0.2662 0.2029 0.9423
vn 0.4175 0.5271 0.7402
vn 0.1888 0.2959 0.9364
vn 0.0826 0.2485 0.9651
vn 0.0637 0.5315 0.8447
vn 0.2222 0.6132 0.7580
vn -0.0254 0.3377 0.9409
vn -0.2124 0.6339 0.7437
vn -0.2192 0.4146 0.8832
vn -0.2890 0.6503 0.7026
vn -0.4183 0.4102 0.8104
vn -0.0893 0.1791 0.9798
vn -0.2400 0.4618 0.8539
vn 0.1771 0.0803 0.9809
vn 0.0050 0.3974 0.9176
vn 0.0109 0.0012 0.9999
vn -0.0923 -0.0117 0.9957
vn -0.2997 0.1524 0.9418
vn -0.5277 0.0049 0.8494
vn 0.5710 -0.3069 0.7614
vn 0.3933 -0.0804 0.9159
vn 0.2159 -0.0008 0.9764
vn 0.0243 -0.0197 0.9995
vn 0.1900 -0.0063 0.9818
vn 0.2216 0.0074 0.9751
vn 0.1326 -0.0399 0.9904
vn -0.7221 0.6917 -0.0000
vn 0.2054 -0.7417 0.6385
vn 0.2825 -0.5234 0.8039
vn 0.3303 -0.3781 0.8648
vn 0.0923 -0.2488 0.9642
vn -0.0123 -0.5191 0.8546
vn -0.0328 -0.7599 0.6493
vn 0.1801 -0.3902 0.9030
vn -0.1901 -0.7676 0.6121
vn -0.0201 -0.4645 0.8853
vn -0.0870 -0.1714 0.9814
vn -0.2258 -0.4487 0.8647
vn 0.1638 -0.0733 0.9838
vn 0.0105 -0.3870 0.9220
vn -0.1279 -0.4946 0.8597
vn 0.3503 0.1073 0.9305
vn -0.4374 -0.3325 0.8355
vn -0.9995 0.0311 -0.0000
vn -0.2974 -0.7565 0.5824
vn -0.2627 -0.5361 0.8022
vn -0.5519 -0.5535 0.6237
vn 0.1205 0.3667 0.9225
vn -0.8950 -0.4460 -0.0000
vn -0.7187 -0.6953 -0.0000
vn 0.2756 0.3558 0.8930
vn 0.6302 -0.2715 -0.7274
vn -0.1267 -0.7475 -0.6521
vn 0.2617 -0.0701 -0.9626
vn -0.8709 -0.3595 -0.3350
vn -0.2499 -0.3544 -0.9011
vn -0.8584 0.5045 -0.0933
vn -0.7205 -0.0711 -0.6898
vn -0.1015 0.9804 -0.1686
vn -0.6795 0.4966 -0.5401
vn 0.6427 0.5924 -0.4857
vn -0.1679 0.7809 -0.6016
vn 0.3027 0.4976 -0.8129
vn 0.7414 -0.3371 -0.5802
vn -0.0666 -0.8610 -0.5043
vn -0.8749 -0.4556 -0.1645
vn -0.8751 0.4736 0.0993
vn -0.0671 0.9975 0.0234
vn 0.7411 0.5921 -0.3164
vn -0.2584 0.2638 -0.9293
vn 0.2662 0.2029 -0.9423
vn 0.1887 0.2959 -0.9364
vn 0.0826 0.2485 -0.9651
vn -0.0254 0.3377 -0.9409
vn -0.2192 0.4146 -0.8832
vn -0.4183 0.4102 -0.8104
vn -0.0893 0.1790 -0.9798
vn 0.1771 0.0803 -0.9809
vn 0.0109 0.0012 -0.9999
vn -0.0923 -0.0117 -0.9957
vn -0.2996 0.1524 -0.9418
vn -0.5277 0.0049 -0.8494
vn 0.2159 -0.0008 -0.9764
vn 0.0243 -0.0197 -0.9995
vn 0.1900 -0.0063 -0.9818
vn 0.2216 0.0074 -0.9751
vn 0.1326 -0.0399 -0.9904
vn 0.3303 -0.3781 -0.8648
vn 0.0923 -0.2488 -0.9642
vn 0.1801 -0.3901 -0.9030
vn -0.0201 -0.4645 -0.8853
vn -0.0870 -0.1714 -0.9814
vn 0.1638 -0.0733 -0.9838
vn -0.1279 -0.4946 -0.8597
vn -0.4374 -0.3325 -0.8355
vn -0.2628 -0.5362 -0.8022
vn -0.5519 -0.5535 -0.6237
s 1
f 8//1 7//2 1//3
f 9//4 8//1 2//5
f 10//6 9//4 3//7
f 11//8 10//6 4//9
f 12//10 11//8 5//11
f 7//2 12//10 6//12
f 14//13 13//14 7//2
f 15//15 14//13 8//1
f 16//16 15//15 9//4
f 17//17 16//16 10//6
f 18//18 17//17 11//8
f 13//14 18//18 12//10
f 1//3 19//19 2//5
f 2//5 19//19 3//7
f 3//7 19//19 4//9
f 4//9 19//19 5//11
f 5//11 19//19 6//12
f 6//12 19//19 1//3
f 21//20 45//21 20//22
f 21//20 25//23 44//24
f 69//25 22//26 20//22
f 37//27 23//28 22//26
f 38//29 24//30 23//28
f 25//23 26//31 43//32
f 26//31 27//33 42//34
f 29//35 22//26 30//36
f 66//37 24//30 31//38
f 41//39 62//40 32//41
f 33//42 32//41 27//33
f 34//43 33//42 26//31
f 35//44 34//43 25//23
f 35//44 21//20 28//45
f 31//38 24//30 39//46
f 54//47 61//48 47//49
f 51//50 61//48 60//51
f 55//52 54//47 46//53
f 56//54 55//52 48//55
f 52//56 60//51 59//57
f 53//58 59//57 58//59
f 49//60 48//55 29//35
f 63//61 41//39 53//58
f 53//58 32//41 52//56
f 34//43 47//49 51//50
f 46//53 47//49 35//44
f 50//62 31//38 40//63
f 62//40 42//34 27//33
f 53//58 58//59 63//61
f 64//64 56//54 49//60
f 65//65 49//60 30//36
f 50//62 66//37 31//38
f 68//66 65//65 66//37
f 50//62 68//66 66//37
f 66//37 30//36 23//28
f 33//42 27//33 26//31
f 33//42 34//43 51//50
f 21//20 20//22 28//45
f 21//20 35//44 25//23
f 46//53 35//44 28//45
f 48//55 55//52 46//53
f 45//21 21//20 44//24
f 44//24 25//23 43//32
f 43//32 26//31 42//34
f 51//50 47//49 61//48
f 34//43 26//31 25//23
f 34//43 35//44 47//49
f 54//47 47//49 46//53
f 45//21 69//25 20//22
f 49//60 29//35 30//36
f 65//65 64//64 49//60
f 49//60 56//54 48//55
f 36//67 37//27 22//26
f 22//26 23//28 30//36
f 65//65 30//36 66//37
f 37//27 38//29 23//28
f 66//37 23//28 24//30
f 38//29 39//46 24//30
f 40//63 31//38 39//46
f 50//62 40//63 57//68
f 62//40 27//33 32//41
f 53//58 52//56 59//57
f 52//56 51//50 60//51
f 52//56 33//42 51//50
f 32//41 33//42 52//56
f 41//39 32//41 53//58
f 6//12 12//10 5//11
f 7//2 13//14 12//10
f 1//3 7//2 6//12
f 8//1 14//13 7//2
f 2//5 8//1 1//3
f 9//4 15//15 8//1
f 3//7 9//4 2//5
f 10//6 16//16 9//4
f 4//9 10//6 3//7
f 11//8 17//17 10//6
f 5//11 11//8 4//9
f 12//10 18//18 11//8
f 50//62 67//69 68//66
f 50//62 57//68 67//69
f 67//69 65//65 68//66
f 67//69 64//64 65//65
f 69//25 70//70 22//26
f 22//26 70//70 36//67
f 20//22 29//35 28//45
f 28//45 48//55 46//53
f 20//22 22//26 29//35
f 28//45 29//35 48//55
f 77//71 78//72 71//73
f 78//72 79//74 72//75
f 79//74 80//76 73//77
f 80//76 81//78 74//79
f 81//78 82//80 75//81
f 82//80 77//71 76//82
f 83//83 84//84 77//71
f 84//84 85//85 78//72
f 85//85 86//86 79//74
f 86//86 87//87 80//76
f 87//87 88//88 81//78
f 88//88 83//83 82//80
f 89//89 71//73 72//75
f 89//89 72//75 73//77
f 89//89 73//77 74//79
f 89//89 74//79 75//81
f 89//89 75//81 76//82
f 89//89 76//82 71//73
f 45//21 91//90 90//91
f 95//92 91//90 44//24
f 92//93 69//25 90//91
f 93//94 37//27 92//93
f 94//95 38//29 93//94
f 96//96 95//92 43//32
f 97//97 96//96 42//34
f 92//93 99//98 100//99
f 94//95 115//100 101//101
f 62//40 41//39 102//102
f 102//102 103//103 97//97
f 103//103 104//104 96//96
f 104//104 105//105 95//92
f 91//90 105//105 98//106
f 94//95 101//101 39//46
f 61//48 54//47 107//107
f 61//48 111//108 60//51
f 54//47 55//52 106//109
f 55//52 56//54 108//110
f 60//51 112//111 59//57
f 59//57 113//112 58//59
f 108//110 109//113 99//98
f 41//39 63//61 113//112
f 102//102 113//112 112//111
f 107//107 104//104 111//108
f 107//107 106//109 105//105
f 101//101 110//114 40//63
f 42//34 62//40 97//97
f 58//59 113//112 63//61
f 56//54 64//64 109//113
f 109//113 114//115 100//99
f 115//100 110//114 101//101
f 114//115 116//116 115//100
f 116//116 110//114 115//100
f 100//99 115//100 93//94
f 97//97 103//103 96//96
f 104//104 103//103 111//108
f 90//91 91//90 98//106
f 105//105 91//90 95//92
f 105//105 106//109 98//106
f 55//52 108//110 106//109
f 91//90 45//21 44//24
f 95//92 44//24 43//32
f 96//96 43//32 42//34
f 107//107 111//108 61//48
f 96//96 104//104 95//92
f 105//105 104//104 107//107
f 107//107 54//47 106//109
f 69//25 45//21 90//91
f 99//98 109//113 100//99
f 64//64 114//115 109//113
f 56//54 109//113 108//110
f 37//27 36//67 92//93
f 93//94 92//93 100//99
f 100//99 114//115 115//100
f 38//29 37//27 93//94
f 93//94 115//100 94//95
f 39//46 38//29 94//95
f 101//101 40//63 39//46
f 40//63 110//114 57//68
f 97//97 62//40 102//102
f 112//111 113//112 59//57
f 111//108 112//111 60//51
f 103//103 112//111 111//108
f 103//103 102//102 112//111
f 102//102 41//39 113//112
f 82//80 76//82 75//81
f 83//83 77//71 82//80
f 77//71 71//73 76//82
f 84//84 78//72 77//71
f 78//72 72//75 71//73
f 85//85 79//74 78//72
f 79//74 73//77 72//75
f 86//86 80//76 79//74
f 80//76 74//79 73//77
f 87//87 81//78 80//76
f 81//78 75//81 74//79
f 88//88 82//80 81//78
f 67//69 110//114 116//116
f 67//69 57//68 110//114
f 67//69 114//115 64//64
f 67//69 116//116 114//115
f 70//70 69//25 92//93
f 70//70 92//93 36//67
f 99//98 90//91 98//106
f 108//110 98//106 106//109
f 92//93 90//91 99//98
f 99//98 98//106 108//110
