{"accessors" : [{"bufferView" : 0, "byteOffset" : 0, "componentType" : 5123, "count" : 1872, "type" : "SCALAR", "max" : [351], "min" : [0]}, {"bufferView" : 1, "byteOffset" : 0, "componentType" : 5126, "count" : 352, "type" : "VEC3", "max" : [2.3073270320892334, 2.731632947921753, 6.736616134643555], "min" : [-1.1378779411315918, -1.6906189918518066, 0], "name" : "POSITION"}, {"bufferView" : 1, "byteOffset" : 12, "componentType" : 5126, "count" : 352, "type" : "VEC2", "max" : [1, 1], "min" : [0, 0], "name" : "TEXCOORD_0"}, {"bufferView" : 1, "byteOffset" : 20, "componentType" : 5126, "count" : 352, "type" : "VEC3", "max" : [0.9999023675918579, 0.9998418092727661, 1.0000044107437134], "min" : [-0.9999215602874756, -0.9999389052391052, -0.998093843460083], "name" : "NORMAL"}], "asset" : {"generator" : "Aspose.3D 24.4.0", "version" : "2.0"}, "buffers" : [{"uri" : "buffer.bin", "byteLength" : 15016}], "bufferViews" : [{"buffer" : 0, "byteOffset" : 0, "byteLength" : 3744, "target" : 34963}, {"buffer" : 0, "byteOffset" : 3748, "byteLength" : 11264, "byteStride" : 32, "target" : 34962}], "meshes" : [{"primitives" : [{"attributes" : {"POSITION" : 1, "TEXCOORD_0" : 2, "NORMAL" : 3}, "indices" : 0, "mode" : 4}], "name" : ""}], "nodes" : [{"mesh" : 0, "name" : ""}], "scene" : 0, "scenes" : [{"nodes" : [0]}]}