{"accessors" : [{"bufferView" : 0, "byteOffset" : 0, "componentType" : 5123, "count" : 1656, "type" : "SCALAR", "max" : [310], "min" : [0]}, {"bufferView" : 1, "byteOffset" : 0, "componentType" : 5126, "count" : 311, "type" : "VEC3", "max" : [1.6195260286331177, 2.1680660247802734, 6.086666107177734], "min" : [-0.95176100730896, -0.8550140261650085, -9.999999974752427E-07], "name" : "POSITION"}, {"bufferView" : 1, "byteOffset" : 12, "componentType" : 5126, "count" : 311, "type" : "VEC2", "max" : [0.8204129934310913, 1], "min" : [0, 0], "name" : "TEXCOORD_0"}, {"bufferView" : 1, "byteOffset" : 20, "componentType" : 5126, "count" : 311, "type" : "VEC3", "max" : [0.9989898204803467, 0.9916204810142517, 0.9959182143211365], "min" : [-0.9930537939071655, -0.9792102575302124, -0.9659618735313416], "name" : "NORMAL"}], "asset" : {"generator" : "Aspose.3D 24.4.0", "version" : "2.0"}, "buffers" : [{"uri" : "buffer.bin", "byteLength" : 13272}], "bufferViews" : [{"buffer" : 0, "byteOffset" : 0, "byteLength" : 3312, "target" : 34963}, {"buffer" : 0, "byteOffset" : 3316, "byteLength" : 9952, "byteStride" : 32, "target" : 34962}], "meshes" : [{"primitives" : [{"attributes" : {"POSITION" : 1, "TEXCOORD_0" : 2, "NORMAL" : 3}, "indices" : 0, "mode" : 4}], "name" : ""}], "nodes" : [{"mesh" : 0, "name" : ""}], "scene" : 0, "scenes" : [{"nodes" : [0]}]}