{"accessors" : [{"bufferView" : 0, "byteOffset" : 0, "componentType" : 5123, "count" : 636, "type" : "SCALAR", "max" : [163], "min" : [0]}, {"bufferView" : 1, "byteOffset" : 0, "componentType" : 5126, "count" : 164, "type" : "VEC3", "max" : [2.6037490367889404, 0.4999209940433502, 1.4825329780578613], "min" : [-1.9940210580825806, -0.4999209940433502, -0.9150999784469604], "name" : "POSITION"}, {"bufferView" : 1, "byteOffset" : 12, "componentType" : 5126, "count" : 164, "type" : "VEC2", "max" : [1, 1], "min" : [0, -2.577131986618042], "name" : "TEXCOORD_0"}, {"bufferView" : 1, "byteOffset" : 20, "componentType" : 5126, "count" : 164, "type" : "VEC3", "max" : [0.7414102554321289, 0.9999439120292664, 0.9974755644798279], "min" : [-0.9995202422142029, -0.9999439120292664, -0.9808947443962097], "name" : "NORMAL"}], "asset" : {"generator" : "Aspose.3D 24.4.0", "version" : "2.0"}, "buffers" : [{"uri" : "buffer.bin", "byteLength" : 6528}], "bufferViews" : [{"buffer" : 0, "byteOffset" : 0, "byteLength" : 1272, "target" : 34963}, {"buffer" : 0, "byteOffset" : 1276, "byteLength" : 5248, "byteStride" : 32, "target" : 34962}], "meshes" : [{"primitives" : [{"attributes" : {"POSITION" : 1, "TEXCOORD_0" : 2, "NORMAL" : 3}, "indices" : 0, "mode" : 4}], "name" : ""}], "nodes" : [{"mesh" : 0, "name" : ""}], "scene" : 0, "scenes" : [{"nodes" : [0]}]}