{"accessors" : [{"bufferView" : 0, "byteOffset" : 0, "componentType" : 5123, "count" : 4506, "type" : "SCALAR", "max" : [4303], "min" : [0]}, {"bufferView" : 1, "byteOffset" : 0, "componentType" : 5126, "count" : 4304, "type" : "VEC3", "max" : [28.735261917114258, 7.324757099151611, 6.318249225616455], "min" : [-14.267951011657715, -7.324757099151611, -6.318249225616455], "name" : "POSITION"}, {"bufferView" : 1, "byteOffset" : 12, "componentType" : 5126, "count" : 4304, "type" : "VEC3", "max" : [0.9915409088134766, 0.999530017375946, 1.0000016689300537], "min" : [-0.9999878406524658, -0.9995290637016296, -0.9999588131904602], "name" : "NORMAL"}], "asset" : {"generator" : "Aspose.3D 24.4.0", "version" : "2.0"}, "buffers" : [{"uri" : "buffer.bin", "byteLength" : 112316}], "bufferViews" : [{"buffer" : 0, "byteOffset" : 0, "byteLength" : 9012, "target" : 34963}, {"buffer" : 0, "byteOffset" : 9016, "byteLength" : 103296, "byteStride" : 24, "target" : 34962}], "meshes" : [{"primitives" : [{"attributes" : {"POSITION" : 1, "NORMAL" : 2}, "indices" : 0, "mode" : 4}], "name" : ""}], "nodes" : [{"mesh" : 0, "name" : ""}], "scene" : 0, "scenes" : [{"nodes" : [0]}]}