# This file uses centimeters as units for non-parametric coordinates.

v -1.196879 -0.440447 0.401756
v -1.236810 -0.437095 0.374449
v -1.277988 -0.420187 0.393683
v -1.279234 -0.406632 0.440224
v -1.239303 -0.409983 0.467530
v -1.198126 -0.426891 0.448297
v -1.040594 -0.414453 0.316295
v -1.210260 -0.400211 0.200267
v -1.385222 -0.328368 0.281993
v -1.390517 -0.270769 0.479746
v -1.220851 -0.285011 0.595773
v -1.045889 -0.356853 0.514048
v -0.982790 -0.315017 0.272275
v -1.178704 -0.298571 0.138298
v -1.380732 -0.215615 0.232666
v -1.386847 -0.149104 0.461012
v -1.190933 -0.165550 0.594989
v -0.988904 -0.248506 0.500620
v -1.246293 -0.453161 0.429397
v 0.586894 -0.195194 0.737991
v 1.127109 -0.099387 0.442047
v -0.191544 -0.218771 0.921535
v -1.069438 -0.187171 0.756414
v -1.794225 -0.142052 0.147873
v 1.502229 -0.049264 0.315405
v 1.937556 -0.068668 0.428249
v 2.292804 -0.048868 0.621010
v 0.239097 -0.309636 0.032948
v -0.366000 -0.365121 0.028372
v -1.088548 -0.345735 0.000000
v -1.880769 -0.157289 0.000000
v 1.932679 -0.077963 0.085510
v 1.734007 -0.081103 0.080895
v 1.502229 -0.090999 0.082408
v 1.127109 -0.170306 0.038062
v -0.106463 0.000000 1.194488
v -0.344420 0.000000 1.034116
v -1.088548 0.000000 0.836362
v -1.869303 0.000000 0.200502
v -1.955802 -0.000000 -0.000000
v 1.988903 -0.000000 0.089023
v 2.303308 -0.000000 0.704201
v 1.932518 -0.000000 0.507993
v 1.502229 0.000000 0.367519
v 1.176794 0.000000 0.503159
v 0.620660 -0.195194 -0.487189
v 1.127109 -0.099387 -0.226728
v -0.182340 -0.218771 -0.593338
v -1.034521 -0.187171 -0.538657
v -1.754506 -0.142052 -0.174352
v 1.502229 -0.049264 -0.150589
v 1.923264 -0.068668 -0.260987
v 2.273374 -0.048868 -0.434531
v 0.620660 -0.000000 -0.574568
v -0.182340 0.000000 -0.714068
v -1.034521 0.000000 -0.633013
v -1.799010 0.000000 -0.219337
v 2.309735 -0.000000 -0.504404
v 1.920657 -0.000000 -0.329266
v 1.502229 -0.000000 -0.206525
v 1.127109 0.000000 -0.318415
v 2.418107 -0.000000 0.661042
v 2.399034 -0.000000 -0.485518
v -1.643439 0.000000 -0.308371
v -1.573575 -0.144069 -0.266414
v -1.386710 -0.276491 0.000000
v -1.556249 -0.000000 -0.166810
v -1.477154 -0.192159 -0.090025
v 0.586894 -0.000000 0.804473
v 0.144062 0.000000 0.978496
v -1.197045 0.446494 0.401833
v -1.236816 0.443156 0.374636
v -1.277827 0.426316 0.393793
v -1.279068 0.412815 0.440147
v -1.239297 0.416153 0.467344
v -1.198287 0.432993 0.448187
v -1.040594 0.420568 0.316295
v -1.210260 0.406326 0.200267
v -1.385222 0.334484 0.281993
v -1.390517 0.276884 0.479746
v -1.220851 0.291126 0.595773
v -1.045889 0.362968 0.514048
v -0.982790 0.321132 0.272275
v -1.178704 0.304686 0.138298
v -1.380732 0.221730 0.232666
v -1.386847 0.155220 0.461012
v -1.190933 0.171665 0.594989
v -0.988904 0.254622 0.500620
v -1.246293 0.459276 0.429397
v 0.586894 0.195194 0.737991
v 1.127109 0.099387 0.442047
v -0.191544 0.218771 0.921535
v -1.069438 0.187171 0.756414
v -1.794225 0.142052 0.147873
v 1.502229 0.049264 0.315405
v 1.937556 0.068668 0.428249
v 2.292804 0.048868 0.621010
v 0.239097 0.309636 0.032948
v -0.366000 0.365121 0.028372
v -1.088548 0.345735 0.000000
v -1.880769 0.157289 -0.000000
v 1.932679 0.077963 0.085510
v 1.734007 0.081103 0.080895
v 1.502229 0.090999 0.082408
v 1.127109 0.170306 0.038062
v 0.620660 0.195194 -0.487189
v 1.127109 0.099387 -0.226728
v -0.182340 0.218771 -0.593338
v -1.034521 0.187171 -0.538657
v -1.754506 0.142052 -0.174352
v 1.502229 0.049264 -0.150589
v 1.923264 0.068668 -0.260987
v 2.273374 0.048868 -0.434531
v -1.573575 0.144069 -0.266414
v -1.386710 0.276491 0.000000
v -1.477154 0.192159 -0.090025
vt 0.169610 0.410239
vt 0.155119 0.489644
vt 0.188699 0.436554
vt 0.150223 0.440890
vt 0.120492 0.452249
vt 0.130231 0.419300
vt 0.119444 0.361764
vt 0.129626 0.367059
vt 0.153023 0.308674
vt 0.149013 0.336407
vt 0.187651 0.346069
vt 0.169005 0.357997
vt 0.161365 0.518000
vt 0.200140 0.456696
vt 0.121380 0.474820
vt 0.120170 0.370336
vt 0.158945 0.309033
vt 0.198929 0.352213
vt 0.147988 0.384802
vt 0.578972 0.210470
vt 0.689900 0.347292
vt 0.689900 0.260983
vt 0.760133 0.392130
vt 0.760133 0.436961
vt 0.394650 0.146619
vt 0.394650 0.000000
vt 0.179208 0.250909
vt 0.179208 0.135632
vt 0.039543 0.513618
vt 0.834340 0.270649
vt 0.834340 0.343553
vt 0.961857 0.205710
vt 0.949242 0.271711
vt 0.179208 0.581280
vt 0.394650 0.581280
vt 0.022415 0.581280
vt 0.137042 0.581280
vt 0.857081 0.543573
vt 0.899601 0.543573
vt 1.000000 0.276705
vt 0.792354 0.543573
vt 0.760133 0.543573
vt 0.689900 0.581280
vt 0.515262 0.581280
vt 0.022415 0.477296
vt 0.000000 0.581280
vt 0.689900 0.734646
vt 0.578972 0.939925
vt 0.689900 0.820956
vt 0.760133 0.695016
vt 0.760133 0.650185
vt 0.578972 0.847737
vt 0.394650 1.000000
vt 0.394650 0.893929
vt 0.179208 0.901878
vt 0.834340 0.816496
vt 0.834340 0.743593
vt 0.961857 0.881435
vt 0.949242 0.815435
vt 0.179208 0.818482
vt 1.000000 0.810441
vt 0.022415 0.685265
vt 0.039543 0.648942
vt 0.060854 0.792466
vt 0.084515 0.752283
vt 0.118393 0.612087
vt 0.099744 0.642895
vt 0.580612 0.010957
vt 0.581996 0.170415
vt 0.587862 0.143554
vt 0.000000 0.000000
vt 0.999820 0.003691
vt 0.000234 0.010074
vt 1.000000 0.000000
vt 0.997814 3.577132
vt 0.000798 2.177353
vt 0.169610 0.410239
vt 0.155119 0.489644
vt 0.188699 0.436554
vt 0.150223 0.440890
vt 0.120492 0.452249
vt 0.130231 0.419300
vt 0.119444 0.361764
vt 0.129626 0.367059
vt 0.153023 0.308674
vt 0.149013 0.336407
vt 0.187651 0.346069
vt 0.169005 0.357997
vt 0.161365 0.518000
vt 0.200140 0.456696
vt 0.121380 0.474820
vt 0.120170 0.370336
vt 0.158945 0.309033
vt 0.198929 0.352213
vt 0.147988 0.384802
vt 0.578972 0.210470
vt 0.689900 0.347292
vt 0.689900 0.260983
vt 0.760133 0.392130
vt 0.760133 0.436961
vt 0.581996 0.170415
vt 0.394650 0.146619
vt 0.394650 0.000000
vt 0.179208 0.250909
vt 0.179208 0.135632
vt 0.039543 0.513618
vt 0.834340 0.270649
vt 0.834340 0.343553
vt 0.961857 0.205710
vt 0.949242 0.271711
vt 0.179208 0.581280
vt 0.394650 0.581280
vt 0.022415 0.581280
vt 0.137042 0.581280
vt 0.857081 0.543573
vt 0.899601 0.543573
vt 1.000000 0.276705
vt 0.792354 0.543573
vt 0.760133 0.543573
vt 0.689900 0.581280
vt 0.515262 0.581280
vt 0.022415 0.477296
vt 0.689900 0.734646
vt 0.578972 0.939925
vt 0.689900 0.820956
vt 0.760133 0.695016
vt 0.760133 0.650185
vt 0.578972 0.847737
vt 0.394650 1.000000
vt 0.394650 0.893929
vt 0.179208 0.901878
vt 0.834340 0.816496
vt 0.834340 0.743593
vt 0.961857 0.881435
vt 0.949242 0.815435
vt 0.179208 0.818482
vt 1.000000 0.810441
vt 0.000000 0.581280
vt 0.039543 0.648942
vt 0.060854 0.792466
vt 0.084515 0.752283
vt 0.118393 0.612087
vt 0.587862 0.143554
vt 0.580612 0.010957
vt 0.022415 0.685265
vt 0.099744 0.642895
vt 0.000000 0.000000
vt 0.999820 0.003691
vt 0.000798 2.177353
vt 0.000234 0.010074
vt 1.000000 0.000000
vt 0.997814 3.577132
vn 0.133889 -0.988535 -0.069795
vn -0.157902 -0.765232 -0.624089
vn 0.522254 -0.831257 -0.190427
vn -0.326876 -0.911485 -0.249693
vn -0.831918 -0.479809 -0.278739
vn -0.684453 -0.727446 0.048438
vn -0.825780 -0.260411 0.500273
vn -0.581254 -0.620462 0.526470
vn -0.145626 -0.326437 0.933933
vn -0.120480 -0.697515 0.706369
vn 0.528391 -0.611860 0.588583
vn 0.237086 -0.881551 0.408238
vn -0.066586 -0.504265 -0.860978
vn 0.741407 -0.580232 -0.337115
vn -0.874847 -0.164484 -0.455617
vn -0.875116 0.099329 0.473608
vn -0.067123 0.023362 0.997471
vn 0.741138 -0.316419 0.592109
vn -0.258386 -0.929335 0.263769
vn 0.196007 -0.931855 0.305331
vn 0.224250 -0.951358 0.211258
vn 0.403211 -0.555636 0.727111
vn 0.049638 -0.715285 0.697068
vn 0.058384 -0.961770 0.267564
vn 0.322961 -0.339612 0.883380
vn 0.010018 -0.953720 0.300530
vn -0.232545 -0.556564 0.797596
vn -0.219048 -0.884904 0.411051
vn -0.435098 -0.399847 0.806729
vn -0.391022 -0.824741 0.408540
vn -0.267529 -0.737260 0.620383
vn -0.055315 -0.973300 0.222773
vn -0.126328 -0.837169 0.532155
vn 0.193762 -0.980274 0.038965
vn -0.099177 -0.995021 -0.009891
vn 0.009292 -0.999941 -0.005618
vn -0.530617 -0.845064 -0.065663
vn -0.233442 -0.966200 0.109376
vn 0.219428 -0.975626 -0.002470
vn 0.700923 -0.481777 -0.525925
vn 0.448988 -0.877721 -0.167375
vn 0.004232 -0.999569 -0.029055
vn 0.103320 -0.994646 -0.002090
vn 0.181378 -0.983295 0.015253
vn 0.111282 -0.993404 -0.027645
vn -0.684008 0.000000 0.729474
vn 0.302865 -0.858208 -0.414430
vn 0.272974 -0.402458 -0.873792
vn 0.310035 -0.646484 -0.697091
vn -0.020499 -0.746900 -0.664621
vn 0.050796 -0.963114 -0.264257
vn 0.184902 -0.906835 -0.378764
vn 0.019578 -0.477951 -0.878169
vn 0.017243 -0.887596 -0.460301
vn -0.217659 -0.443577 -0.869404
vn -0.251197 -0.688473 -0.680371
vn -0.047619 -0.979457 -0.195949
vn -0.142969 -0.774570 -0.616118
vn 0.217941 -0.975962 -0.000746
vn -0.145048 -0.857234 -0.494075
vn 0.432714 -0.871354 0.231301
vn 0.700920 -0.566235 0.433693
vn -0.993628 0.000000 -0.112713
vn -0.413682 -0.834800 -0.363286
vn -0.431906 -0.428990 -0.793363
vn -0.316669 -0.804862 -0.501914
vn -0.143153 -0.789971 -0.596199
vn -0.322810 -0.677897 -0.660492
vn -0.859035 -0.223343 0.460627
vn 0.219521 -0.272369 -0.936817
vn 0.140386 -0.793466 0.592202
vn -0.813517 0.000000 -0.581542
vn 0.230102 0.000000 -0.973167
vn -0.504288 0.000000 -0.863535
vn -0.880170 0.000000 0.474658
vn 0.323231 -0.669887 0.668411
vn 0.133474 0.988589 -0.069836
vn 0.521950 0.831504 -0.190183
vn -0.157961 0.765514 -0.623729
vn -0.327151 0.911475 -0.249373
vn -0.831770 0.480190 -0.278525
vn -0.684347 0.727519 0.048841
vn -0.825669 0.260857 0.500225
vn -0.580913 0.620680 0.526589
vn -0.145758 0.326847 0.933770
vn -0.120287 0.697796 0.706125
vn 0.528051 0.612171 0.588565
vn 0.236907 0.881750 0.407912
vn 0.741407 0.580232 -0.337115
vn -0.066586 0.504265 -0.860978
vn -0.874847 0.164484 -0.455617
vn -0.875117 -0.099329 0.473608
vn -0.067123 -0.023362 0.997471
vn 0.741138 0.316419 0.592109
vn -0.258391 0.929333 0.263768
vn 0.196007 0.931855 0.305331
vn 0.403211 0.555636 0.727110
vn 0.224250 0.951358 0.211258
vn 0.049638 0.715285 0.697068
vn 0.058384 0.961770 0.267564
vn 0.010018 0.953720 0.300530
vn 0.322961 0.339612 0.883380
vn -0.219048 0.884904 0.411051
vn -0.232545 0.556564 0.797596
vn -0.391022 0.824741 0.408540
vn -0.435098 0.399847 0.806729
vn -0.267529 0.737261 0.620383
vn -0.055315 0.973300 0.222773
vn -0.126329 0.837169 0.532155
vn 0.193762 0.980274 0.038965
vn -0.099177 0.995021 -0.009891
vn 0.009292 0.999941 -0.005618
vn -0.530617 0.845064 -0.065663
vn -0.233442 0.966200 0.109376
vn 0.219428 0.975626 -0.002470
vn 0.448988 0.877722 -0.167375
vn 0.700923 0.481778 -0.525925
vn 0.004232 0.999569 -0.029055
vn 0.103320 0.994646 -0.002090
vn 0.181378 0.983295 0.015253
vn 0.111282 0.993404 -0.027645
vn 0.302865 0.858208 -0.414430
vn 0.310035 0.646484 -0.697091
vn 0.272974 0.402458 -0.873792
vn -0.020499 0.746900 -0.664621
vn 0.050796 0.963114 -0.264257
vn 0.184902 0.906835 -0.378764
vn 0.019578 0.477951 -0.878169
vn 0.017243 0.887596 -0.460301
vn -0.217659 0.443577 -0.869404
vn -0.251197 0.688473 -0.680371
vn -0.047619 0.979457 -0.195949
vn -0.142969 0.774570 -0.616118
vn 0.217941 0.975962 -0.000746
vn -0.145048 0.857234 -0.494075
vn 0.700920 0.566234 0.433693
vn 0.432715 0.871354 0.231301
vn -0.413682 0.834800 -0.363286
vn -0.431906 0.428990 -0.793363
vn -0.316669 0.804862 -0.501914
vn -0.143154 0.789970 -0.596199
vn -0.859035 0.223343 0.460627
vn -0.322810 0.677897 -0.660492
vn 0.219521 0.272369 -0.936817
vn 0.140386 0.793466 0.592202
vn 0.323231 0.669887 0.668411
s 1
f 1/1/1 8/2/2 7/3/3
f 2/4/4 9/5/5 8/2/2
f 3/6/6 10/7/7 9/5/5
f 4/8/8 11/9/9 10/7/7
f 5/10/10 12/11/11 11/9/9
f 6/12/12 7/3/3 12/11/11
f 7/3/3 14/13/13 13/14/14
f 8/2/2 15/15/15 14/13/13
f 9/5/5 16/16/16 15/15/15
f 10/7/7 17/17/17 16/16/16
f 11/9/9 18/18/18 17/17/17
f 12/11/11 13/14/14 18/18/18
f 2/4/4 1/1/1 19/19/19
f 3/6/6 2/4/4 19/19/19
f 4/8/8 3/6/6 19/19/19
f 5/10/10 4/8/8 19/19/19
f 6/12/12 5/10/10 19/19/19
f 1/1/1 6/12/12 19/19/19
s 6
f 20/20/20 21/21/21 45/22/22
f 44/23/23 21/21/21 25/24/24
f 20/20/20 69/69/25 22/25/26
f 22/25/26 37/26/27 23/27/28
f 23/27/28 38/28/29 24/29/30
f 43/30/31 25/24/24 26/31/32
f 42/32/33 26/31/32 27/33/34
f 30/34/35 29/35/36 22/25/26
f 31/36/37 66/37/38 24/29/30
f 32/38/39 41/39/40 62/40/41
f 27/33/34 33/41/42 32/38/39
f 26/31/32 34/42/43 33/41/42
f 25/24/24 35/43/44 34/42/43
f 28/44/45 35/43/44 21/21/21
f 39/45/46 31/36/37 24/29/30
f 47/47/47 54/48/48 61/49/49
f 60/50/50 51/51/51 61/49/49
f 46/52/52 55/53/53 54/48/48
f 48/54/54 56/55/55 55/53/53
f 59/56/56 52/57/57 60/50/50
f 58/58/58 53/59/59 59/56/56
f 29/35/36 49/60/60 48/54/54
f 53/59/59 63/61/61 41/39/62
f 52/57/57 53/59/59 32/38/39
f 51/51/51 34/42/43 47/47/47
f 35/43/44 46/52/52 47/47/47
f 40/46/63 50/63/64 31/36/37
f 27/33/34 62/40/41 42/32/33
f 63/61/61 53/59/59 58/58/58
f 49/60/60 64/64/65 56/55/55
f 30/34/35 65/65/66 49/60/60
f 31/36/37 50/63/64 66/37/38
s 21
f 66/37/67 68/66/68 65/65/69
f 66/37/67 50/63/70 68/66/68
s 6
f 23/27/28 66/37/38 30/34/35
f 26/31/32 33/41/42 27/33/34
f 51/51/51 33/41/42 34/42/43
f 28/44/45 21/21/21 20/20/20
f 25/24/24 21/21/21 35/43/44
f 28/44/45 46/52/52 35/43/44
f 46/52/52 48/54/54 55/53/53
f 44/23/23 45/22/22 21/21/21
f 43/30/31 44/23/23 25/24/24
f 42/32/33 43/30/31 26/31/32
f 61/49/49 51/51/51 47/47/47
f 25/24/24 34/42/43 26/31/32
f 47/47/47 34/42/43 35/43/44
f 46/52/52 54/48/48 47/47/47
f 20/20/20 45/22/22 69/70/25
f 30/34/35 49/60/60 29/35/36
f 49/60/60 65/65/66 64/64/65
f 48/54/54 49/60/60 56/55/55
f 22/25/26 36/68/71 37/26/27
f 30/34/35 22/25/26 23/27/28
f 66/37/38 65/65/66 30/34/35
f 23/27/28 37/26/27 38/28/29
f 24/29/30 66/37/38 23/27/28
f 24/29/30 38/28/29 39/45/46
f 39/45/46 40/46/63 31/36/37
f 57/62/72 50/63/64 40/46/63
f 32/38/39 62/40/41 27/33/34
f 59/56/56 53/59/59 52/57/57
f 60/50/50 52/57/57 51/51/51
f 51/51/51 52/57/57 33/41/42
f 52/57/57 32/38/39 33/41/42
f 53/59/59 41/39/62 32/38/39
s 1
f 5/10/10 6/12/12 12/11/11
f 12/11/11 7/3/3 13/14/14
f 6/12/12 1/1/1 7/3/3
f 7/3/3 8/2/2 14/13/13
f 1/1/1 2/4/4 8/2/2
f 8/2/2 9/5/5 15/15/15
f 2/4/4 3/6/6 9/5/5
f 9/5/5 10/7/7 16/16/16
f 3/6/6 4/8/8 10/7/7
f 10/7/7 11/9/9 17/17/17
f 4/8/8 5/10/10 11/9/9
f 11/9/9 12/11/11 18/18/18
s 21
f 68/66/68 50/63/70 57/62/73 67/67/74
f 65/65/69 68/66/68 67/67/74 64/64/75
s 6
f 22/71/26 69/72/25 70/76/76
f 36/73/71 22/74/26 70/75/76
f 28/44/45 20/20/20 29/35/36
f 46/52/52 28/44/45 48/54/54
f 29/35/36 20/20/20 22/25/26
f 48/54/54 28/44/45 29/35/36
s 22
f 71/77/77 77/79/78 78/78/79
f 72/80/80 78/78/79 79/81/81
f 73/82/82 79/81/81 80/83/83
f 74/84/84 80/83/83 81/85/85
f 75/86/86 81/85/85 82/87/87
f 76/88/88 82/87/87 77/79/78
f 77/79/78 83/90/89 84/89/90
f 78/78/79 84/89/90 85/91/91
f 79/81/81 85/91/91 86/92/92
f 80/83/83 86/92/92 87/93/93
f 81/85/85 87/93/93 88/94/94
f 82/87/87 88/94/94 83/90/89
f 72/80/80 89/95/95 71/77/77
f 73/82/82 89/95/95 72/80/80
f 74/84/84 89/95/95 73/82/82
f 75/86/86 89/95/95 74/84/84
f 76/88/88 89/95/95 75/86/86
f 71/77/77 89/95/95 76/88/88
s 6
f 90/96/96 45/98/97 91/97/98
f 44/99/99 95/100/100 91/97/98
f 90/96/96 92/102/101 69/101/102
f 92/102/101 93/104/103 37/103/104
f 93/104/103 94/106/105 38/105/106
f 43/107/107 96/108/108 95/100/100
f 42/109/109 97/110/110 96/108/108
f 100/111/111 92/102/101 99/112/112
f 101/113/113 94/106/105 115/114/114
f 102/115/115 62/117/116 41/116/117
f 97/110/110 102/115/115 103/118/118
f 96/108/108 103/118/118 104/119/119
f 95/100/100 104/119/119 105/120/120
f 98/121/121 91/97/98 105/120/120
f 39/122/46 94/106/105 101/113/113
f 107/123/122 61/125/123 54/124/124
f 60/126/125 61/125/123 111/127/126
f 106/128/127 54/124/124 55/129/128
f 108/130/129 55/129/128 56/131/130
f 59/132/131 60/126/125 112/133/132
f 58/134/133 59/132/131 113/135/134
f 99/112/112 108/130/129 109/136/135
f 113/135/134 41/116/136 63/137/137
f 112/133/132 102/115/115 113/135/134
f 111/127/126 107/123/122 104/119/119
f 105/120/120 107/123/122 106/128/127
f 40/138/63 101/113/113 110/139/138
f 97/110/110 42/109/109 62/117/116
f 63/137/137 58/134/133 113/135/134
f 109/136/135 56/131/130 64/140/139
f 100/111/111 109/136/135 114/141/140
f 101/113/113 115/114/114 110/139/138
s 21
f 115/114/141 114/141/142 116/142/143
f 115/114/141 116/142/143 110/139/144
s 6
f 93/104/103 100/111/111 115/114/114
f 96/108/108 97/110/110 103/118/118
f 111/127/126 104/119/119 103/118/118
f 98/121/121 90/96/96 91/97/98
f 95/100/100 105/120/120 91/97/98
f 98/121/121 105/120/120 106/128/127
f 106/128/127 55/129/128 108/130/129
f 44/99/99 91/97/98 45/98/97
f 43/107/107 95/100/100 44/99/99
f 42/109/109 96/108/108 43/107/107
f 61/125/123 107/123/122 111/127/126
f 95/100/100 96/108/108 104/119/119
f 107/123/122 105/120/120 104/119/119
f 106/128/127 107/123/122 54/124/124
f 90/96/96 69/143/102 45/98/97
f 100/111/111 99/112/112 109/136/135
f 109/136/135 64/140/139 114/141/140
f 108/130/129 56/131/130 109/136/135
f 92/102/101 37/103/104 36/144/145
f 100/111/111 93/104/103 92/102/101
f 115/114/114 100/111/111 114/141/140
f 93/104/103 38/105/106 37/103/104
f 94/106/105 93/104/103 115/114/114
f 94/106/105 39/122/46 38/105/106
f 39/122/46 101/113/113 40/138/63
f 57/145/72 40/138/63 110/139/138
f 102/115/115 97/110/110 62/117/116
f 59/132/131 112/133/132 113/135/134
f 60/126/125 111/127/126 112/133/132
f 111/127/126 103/118/118 112/133/132
f 112/133/132 103/118/118 102/115/115
f 113/135/134 102/115/115 41/116/136
s 22
f 75/86/86 82/87/87 76/88/88
f 82/87/87 83/90/89 77/79/78
f 76/88/88 77/79/78 71/77/77
f 77/79/78 84/89/90 78/78/79
f 71/77/77 78/78/79 72/80/80
f 78/78/79 85/91/91 79/81/81
f 72/80/80 79/81/81 73/82/82
f 79/81/81 86/92/92 80/83/83
f 73/82/82 80/83/83 74/84/84
f 80/83/83 87/93/93 81/85/85
f 74/84/84 81/85/85 75/86/86
f 81/85/85 88/94/94 82/87/87
s 21
f 116/142/143 67/146/74 57/145/73 110/139/144
f 114/141/142 64/140/75 67/146/74 116/142/143
s 6
f 92/147/101 70/149/146 69/148/102
f 36/150/145 70/152/146 92/151/101
f 98/121/121 99/112/112 90/96/96
f 106/128/127 108/130/129 98/121/121
f 99/112/112 92/102/101 90/96/96
f 108/130/129 99/112/112 98/121/121
